# This file uses centimeters as units for non-parametric coordinates.

v 3.388887 -16.924549 2.066151
v 3.388887 16.924551 2.066151
v -6.611113 -16.924549 2.066151
v -6.611113 16.924551 2.066151
v -6.611113 -16.924549 -2.066151
v -6.611113 16.924551 -2.066151
v 3.388887 -16.924549 -2.066151
v 3.388887 16.924551 -2.066151
v -15.543818 0.000000 2.066151
v -15.543818 0.000000 -2.066151
v -5.543819 0.000000 -2.066151
v -5.543819 0.000000 2.066151
v 1.624758 -15.903757 2.981479
v -6.861635 0.000000 2.981479
v -14.577525 0.000000 2.981479
v -6.091132 -15.903757 2.981479
v 1.624758 15.903757 2.981479
v -6.091132 15.903756 2.981479
v -14.577525 0.000000 -2.981479
v -6.091132 -15.903757 -2.981479
v -6.861634 0.000000 -2.981479
v 1.624758 -15.903757 -2.981479
v -6.091132 15.903756 -2.981479
v 1.624758 15.903757 -2.981479
v 18.564131 -16.924551 2.066151
v 18.564131 16.924553 2.066151
v 8.564131 -16.924551 2.066151
v 8.564131 16.924551 2.066151
v 8.564131 -16.924551 -2.066151
v 8.564131 16.924551 -2.066151
v 18.564131 -16.924551 -2.066151
v 18.564131 16.924553 -2.066151
v -0.368576 0.000000 2.066151
v -0.368576 0.000000 -2.066151
v 9.631424 0.000000 -2.066151
v 9.631424 0.000000 2.066151
v 16.800001 -15.903757 2.981479
v 8.313608 0.000000 2.981479
v 0.597719 0.000000 2.981479
v 9.084112 -15.903757 2.981479
v 16.800001 15.903757 2.981479
v 9.084112 15.903756 2.981479
v 0.597719 0.000000 -2.981479
v 9.084112 -15.903757 -2.981479
v 8.313609 0.000000 -2.981479
v 16.800001 -15.903757 -2.981479
v 9.084112 15.903756 -2.981479
v 16.800001 15.903757 -2.981479
vt 0.133376 0.306734
vt 0.133828 0.306519
vt 0.133829 0.306303
vt 0.133373 0.306524
vt 0.133339 0.306516
vt 0.133827 0.306283
vt 0.133815 0.306315
vt 0.133319 0.306552
vt 0.133344 0.306576
vt 0.133812 0.306350
vt 0.133810 0.306571
vt 0.133348 0.306790
vt 0.133324 0.306828
vt 0.133813 0.306600
vt 0.133825 0.306564
vt 0.133344 0.306788
vt 0.134310 0.306828
vt 0.134306 0.306869
vt 0.134316 0.306589
vt 0.134319 0.306552
vt 0.134284 0.306611
vt 0.134277 0.306828
vt 0.134283 0.306770
vt 0.134289 0.306558
vt 0.133376 0.306734
vt 0.133828 0.306519
vt 0.133829 0.306303
vt 0.133373 0.306524
vt 0.133339 0.306516
vt 0.133827 0.306283
vt 0.133815 0.306315
vt 0.133319 0.306552
vt 0.133344 0.306576
vt 0.133812 0.306350
vt 0.133810 0.306571
vt 0.133348 0.306790
vt 0.133324 0.306828
vt 0.133813 0.306600
vt 0.133825 0.306564
vt 0.133344 0.306788
vt 0.134310 0.306828
vt 0.134306 0.306869
vt 0.134316 0.306589
vt 0.134319 0.306552
vt 0.134284 0.306611
vt 0.134277 0.306828
vt 0.134283 0.306770
vt 0.134289 0.306558
vn 0.000000 0.000000 1.000000
vn 0.000000 0.000000 1.000000
vn 0.000000 0.000000 1.000000
vn 0.000000 0.000000 1.000000
vn -0.884378 -0.466771 0.000000
vn -0.884378 -0.466771 0.000000
vn -0.884378 -0.466771 0.000000
vn -0.884378 -0.466771 0.000000
vn 0.000000 0.000000 -1.000000
vn 0.000000 0.000000 -1.000000
vn 0.000000 0.000000 -1.000000
vn 0.000000 0.000000 -1.000000
vn 0.884378 0.466771 0.000000
vn 0.884378 0.466771 0.000000
vn 0.884378 0.466771 0.000000
vn 0.884378 0.466771 0.000000
vn 0.000000 1.000000 0.000000
vn 0.000000 1.000000 0.000000
vn 0.000000 1.000000 0.000000
vn 0.000000 1.000000 0.000000
vn 0.000000 -1.000000 0.000000
vn 0.000000 -1.000000 0.000000
vn 0.000000 -1.000000 0.000000
vn 0.000000 -1.000000 0.000000
vn -0.884378 0.466771 0.000000
vn -0.884378 0.466771 0.000000
vn -0.884378 0.466771 0.000000
vn -0.884378 0.466771 0.000000
vn 0.000000 0.000000 -1.000000
vn 0.000000 0.000000 -1.000000
vn 0.000000 0.000000 -1.000000
vn 0.000000 0.000000 -1.000000
vn 0.884378 -0.466771 0.000000
vn 0.884378 -0.466771 0.000000
vn 0.884378 -0.466771 0.000000
vn 0.884378 -0.466771 0.000000
vn 0.000000 0.000000 1.000000
vn 0.000000 0.000000 1.000000
vn 0.000000 0.000000 1.000000
vn 0.000000 0.000000 1.000000
vn 0.558397 0.296292 0.774857
vn 0.558397 0.296292 0.774857
vn 0.558397 0.296292 0.774857
vn 0.558397 0.296292 0.774857
vn -0.631362 -0.335008 0.699394
vn -0.631362 -0.335008 0.699394
vn -0.631362 -0.335008 0.699394
vn -0.631362 -0.335008 0.699394
vn 0.000000 -0.667600 0.744520
vn 0.000000 -0.667600 0.744520
vn 0.000000 -0.667600 0.744520
vn 0.000000 -0.667600 0.744520
vn 0.558397 -0.296292 0.774857
vn 0.558397 -0.296293 0.774857
vn 0.558398 -0.296293 0.774857
vn 0.558397 -0.296293 0.774857
vn -0.000000 0.667599 0.744521
vn -0.000000 0.667599 0.744521
vn -0.000000 0.667599 0.744521
vn -0.000000 0.667599 0.744521
vn -0.631362 0.335008 0.699394
vn -0.631362 0.335008 0.699394
vn -0.631362 0.335008 0.699394
vn -0.631362 0.335008 0.699394
vn -0.631362 -0.335008 -0.699394
vn -0.631362 -0.335008 -0.699394
vn -0.631362 -0.335008 -0.699394
vn -0.631362 -0.335008 -0.699394
vn 0.558397 0.296292 -0.774857
vn 0.558397 0.296292 -0.774857
vn 0.558397 0.296293 -0.774857
vn 0.558397 0.296293 -0.774857
vn 0.000000 -0.667600 -0.744520
vn 0.000000 -0.667600 -0.744520
vn 0.000000 -0.667600 -0.744520
vn 0.000000 -0.667600 -0.744520
vn -0.631361 0.335008 -0.699394
vn -0.631362 0.335008 -0.699394
vn -0.631362 0.335008 -0.699394
vn -0.631362 0.335008 -0.699394
vn -0.000000 0.667599 -0.744521
vn -0.000000 0.667599 -0.744521
vn -0.000000 0.667599 -0.744521
vn -0.000000 0.667599 -0.744521
vn 0.558398 -0.296293 -0.774857
vn 0.558398 -0.296293 -0.774857
vn 0.558398 -0.296293 -0.774857
vn 0.558398 -0.296293 -0.774857
vn 0.000000 0.000000 1.000000
vn 0.000000 0.000000 1.000000
vn 0.000000 0.000000 1.000000
vn 0.000000 0.000000 1.000000
vn -0.884378 -0.466771 0.000000
vn -0.884378 -0.466771 0.000000
vn -0.884378 -0.466771 0.000000
vn -0.884378 -0.466771 0.000000
vn 0.000000 0.000000 -1.000000
vn 0.000000 0.000000 -1.000000
vn 0.000000 0.000000 -1.000000
vn 0.000000 0.000000 -1.000000
vn 0.884378 0.466771 0.000000
vn 0.884378 0.466771 0.000000
vn 0.884378 0.466771 0.000000
vn 0.884378 0.466771 0.000000
vn -0.000000 1.000000 0.000000
vn -0.000000 1.000000 0.000000
vn -0.000000 1.000000 0.000000
vn -0.000000 1.000000 0.000000
vn 0.000000 -1.000000 0.000000
vn 0.000000 -1.000000 0.000000
vn 0.000000 -1.000000 0.000000
vn 0.000000 -1.000000 0.000000
vn -0.884378 0.466771 0.000000
vn -0.884378 0.466771 0.000000
vn -0.884378 0.466771 0.000000
vn -0.884378 0.466771 0.000000
vn 0.000000 0.000000 -1.000000
vn 0.000000 0.000000 -1.000000
vn 0.000000 0.000000 -1.000000
vn 0.000000 0.000000 -1.000000
vn 0.884378 -0.466771 0.000000
vn 0.884378 -0.466771 0.000000
vn 0.884378 -0.466771 0.000000
vn 0.884378 -0.466771 0.000000
vn 0.000000 0.000000 1.000000
vn 0.000000 0.000000 1.000000
vn 0.000000 0.000000 1.000000
vn 0.000000 0.000000 1.000000
vn 0.558398 0.296292 0.774857
vn 0.558398 0.296292 0.774857
vn 0.558398 0.296292 0.774857
vn 0.558398 0.296292 0.774857
vn -0.631361 -0.335008 0.699395
vn -0.631361 -0.335008 0.699395
vn -0.631361 -0.335008 0.699395
vn -0.631361 -0.335008 0.699395
vn 0.000000 -0.667599 0.744521
vn 0.000000 -0.667599 0.744521
vn 0.000000 -0.667599 0.744521
vn 0.000000 -0.667599 0.744521
vn 0.558398 -0.296293 0.774857
vn 0.558398 -0.296293 0.774857
vn 0.558398 -0.296293 0.774857
vn 0.558398 -0.296293 0.774857
vn -0.000000 0.667598 0.744522
vn -0.000000 0.667598 0.744522
vn -0.000000 0.667598 0.744522
vn -0.000000 0.667598 0.744522
vn -0.631361 0.335008 0.699395
vn -0.631361 0.335008 0.699395
vn -0.631361 0.335008 0.699395
vn -0.631361 0.335008 0.699395
vn -0.631361 -0.335008 -0.699395
vn -0.631361 -0.335008 -0.699395
vn -0.631361 -0.335008 -0.699395
vn -0.631361 -0.335008 -0.699395
vn 0.558398 0.296293 -0.774857
vn 0.558398 0.296293 -0.774857
vn 0.558398 0.296293 -0.774857
vn 0.558398 0.296293 -0.774857
vn 0.000000 -0.667599 -0.744521
vn 0.000000 -0.667599 -0.744521
vn 0.000000 -0.667599 -0.744521
vn 0.000000 -0.667599 -0.744521
vn -0.631361 0.335008 -0.699395
vn -0.631361 0.335008 -0.699395
vn -0.631361 0.335008 -0.699395
vn -0.631361 0.335008 -0.699395
vn -0.000000 0.667598 -0.744522
vn -0.000000 0.667598 -0.744522
vn -0.000000 0.667598 -0.744522
vn -0.000000 0.667598 -0.744522
vn 0.558398 -0.296293 -0.774857
vn 0.558398 -0.296293 -0.774857
vn 0.558398 -0.296293 -0.774857
vn 0.558398 -0.296293 -0.774857
s off
f 13/1/1 14/2/2 15/3/3 16/4/4
f 3/5/5 9/6/6 10/7/7 5/8/8
f 20/9/9 19/10/10 21/11/11 22/12/12
f 7/13/13 11/14/14 12/15/15 1/16/16
f 2/17/17 8/18/18 6/19/19 4/20/20
f 7/13/21 1/16/22 3/5/23 5/8/24
f 9/6/25 4/20/26 6/19/27 10/7/28
f 21/11/29 19/10/30 23/21/31 24/22/32
f 12/15/33 11/14/34 8/18/35 2/17/36
f 15/3/37 14/2/38 17/23/39 18/24/40
f 1/16/41 12/15/42 14/2/43 13/1/44
f 9/6/45 3/5/46 16/4/47 15/3/48
f 3/5/49 1/16/50 13/1/51 16/4/52
f 12/15/53 2/17/54 17/23/55 14/2/56
f 2/17/57 4/20/58 18/24/59 17/23/60
f 4/20/61 9/6/62 15/3/63 18/24/64
f 5/8/65 10/7/66 19/10/67 20/9/68
f 11/14/69 7/13/70 22/12/71 21/11/72
f 7/13/73 5/8/74 20/9/75 22/12/76
f 10/7/77 6/19/78 23/21/79 19/10/80
f 6/19/81 8/18/82 24/22/83 23/21/84
f 8/18/85 11/14/86 21/11/87 24/22/88
f 37/25/89 38/26/90 39/27/91 40/28/92
f 27/29/93 33/30/94 34/31/95 29/32/96
f 44/33/97 43/34/98 45/35/99 46/36/100
f 31/37/101 35/38/102 36/39/103 25/40/104
f 26/41/105 32/42/106 30/43/107 28/44/108
f 31/37/109 25/40/110 27/29/111 29/32/112
f 33/30/113 28/44/114 30/43/115 34/31/116
f 45/35/117 43/34/118 47/45/119 48/46/120
f 36/39/121 35/38/122 32/42/123 26/41/124
f 39/27/125 38/26/126 41/47/127 42/48/128
f 25/40/129 36/39/130 38/26/131 37/25/132
f 33/30/133 27/29/134 40/28/135 39/27/136
f 27/29/137 25/40/138 37/25/139 40/28/140
f 36/39/141 26/41/142 41/47/143 38/26/144
f 26/41/145 28/44/146 42/48/147 41/47/148
f 28/44/149 33/30/150 39/27/151 42/48/152
f 29/32/153 34/31/154 43/34/155 44/33/156
f 35/38/157 31/37/158 46/36/159 45/35/160
f 31/37/161 29/32/162 44/33/163 46/36/164
f 34/31/165 30/43/166 47/45/167 43/34/168
f 30/43/169 32/42/170 48/46/171 47/45/172
f 32/42/173 35/38/174 45/35/175 48/46/176
