# This file uses centimeters as units for non-parametric coordinates.

v -0.000000 0.000000 1652.770630
v 0.000000 0.000000 0.000000
v -2.141618 2.141618 1647.047241
v 2.141617 2.141618 1647.047241
v 2.141617 -2.141617 1647.048584
v -2.141618 -2.141617 1647.048584
v -0.574779 0.574779 39.538715
v 0.574779 0.574779 39.538715
v 0.574779 -0.574779 39.539276
v -0.574779 -0.574779 39.539276
vt 0.319435 0.348633
vt 0.319708 0.348612
vt 0.319708 0.348603
vt 0.320435 0.348546
vt 0.320419 0.348545
vt 0.320411 0.348541
vt 0.320416 0.348556
vt 0.320409 0.348551
vt 0.319710 0.348607
vt 0.319710 0.348616
vn 0.000000 0.999894 -0.014536
vn 0.000000 1.000000 -0.001044
vn 0.000000 1.000000 -0.001044
vn 0.000000 -0.999894 -0.014535
vn 0.000000 -1.000000 -0.001044
vn 0.000000 -1.000000 -0.001044
vn 0.999894 -0.000007 -0.014535
vn 1.000000 -0.000000 -0.001044
vn 1.000000 -0.000000 -0.001044
vn -0.999894 -0.000007 -0.014535
vn -0.999999 -0.000000 -0.001044
vn -1.000000 -0.000000 -0.001044
vn 0.000000 0.936579 0.350456
vn 0.000000 1.000000 -0.000149
vn 0.000000 1.000000 -0.000149
vn 0.936573 0.000110 0.350474
vn 1.000000 -0.000000 -0.000149
vn 1.000000 -0.000000 -0.000149
vn 0.000000 -1.000000 -0.000149
vn 0.000000 -1.000000 -0.000149
vn 0.000000 -0.936552 0.350528
vn -1.000000 -0.000000 -0.000149
vn -1.000000 -0.000000 -0.000149
vn -0.936573 0.000110 0.350474
vn 0.000000 1.000000 -0.000149
vn 0.000000 1.000000 -0.000149
vn 0.000000 1.000000 -0.001044
vn 0.000000 1.000000 -0.001044
vn 1.000000 -0.000000 -0.000149
vn 1.000000 -0.000000 -0.000149
vn 1.000000 -0.000000 -0.001044
vn 1.000000 -0.000000 -0.001044
vn 0.000000 -1.000000 -0.001044
vn 0.000000 -1.000000 -0.001044
vn 0.000000 -1.000000 -0.000149
vn 0.000000 -1.000000 -0.000149
vn -1.000000 -0.000000 -0.001044
vn -0.999999 -0.000000 -0.001044
vn -1.000000 -0.000000 -0.000149
vn -1.000000 -0.000000 -0.000149
s off
f 2/1/1 7/3/2 8/9/3
f 2/1/4 9/10/5 10/2/6
f 2/1/7 8/9/8 9/10/9
f 2/1/10 10/2/11 7/3/12
f 1/4/13 4/5/14 3/6/15
f 1/4/16 5/7/17 4/5/18
f 6/8/19 5/7/20 1/4/21
f 3/6/22 6/8/23 1/4/24
f 3/6/25 4/5/26 8/9/27 7/3/28
f 4/5/29 5/7/30 9/10/31 8/9/32
f 10/2/33 9/10/34 5/7/35 6/8/36
f 7/3/37 10/2/38 6/8/39 3/6/40
