# This file uses centimeters as units for non-parametric coordinates.

v 0.086999 25.031826 -1.792870
v 2.720510 14.706414 2.738670
v 4.287078 3.309779 -1.462730
v 0.682282 18.296345 -4.509567
v 1.638865 1.466931 -4.456757
v 1.907699 -6.731137 0.690849
v 1.640232 28.915905 1.656700
v -1.379914 28.480431 3.062798
v -1.310175 -2.836571 4.688217
v -3.337486 2.394833 -4.748474
v -1.360874 31.172712 0.371178
v -3.192151 16.802959 -2.495041
v -4.685902 -5.472277 -0.139099
v -3.545754 20.795704 1.473450
v 3.280697 6.987705 5.969971
v -1.760014 16.898376 4.458618
v -5.070920 14.296099 3.587112
v -3.125434 6.411341 6.212296
v -7.170877 3.942099 0.333473
v -2.366718 20.885719 -1.350410
v 4.674113 14.692394 0.076630
vt 0.357960 0.491703
vt 0.357919 0.491831
vt 0.357919 0.491831
vt 0.357959 0.491909
vt 0.357959 0.491909
vt 0.357684 0.491428
vt 0.357959 0.491909
vt 0.357959 0.491909
vt 0.358053 0.491181
vt 0.357929 0.491510
vt 0.357959 0.491909
vt 0.357697 0.491422
vt 0.357795 0.491121
vt 0.357959 0.491909
vt 0.358119 0.491394
vt 0.358108 0.491227
vt 0.357991 0.491167
vt 0.358050 0.491390
vt 0.358108 0.491227
vt 0.357751 0.491197
vt 0.357925 0.491843
vn 0.896195 0.034453 -0.442321
vn 0.896195 0.034453 -0.442321
vn 0.896195 0.034453 -0.442321
vn 0.402368 0.098364 0.910178
vn 0.402369 0.098364 0.910178
vn 0.402369 0.098364 0.910178
vn 0.402369 0.098364 0.910178
vn 0.985445 -0.055249 0.160767
vn 0.985445 -0.055249 0.160767
vn 0.985445 -0.055249 0.160767
vn 0.726232 0.067822 -0.684096
vn 0.726232 0.067822 -0.684096
vn 0.726232 0.067822 -0.684096
vn 0.769651 0.041748 -0.637099
vn 0.769651 0.041748 -0.637099
vn 0.769651 0.041748 -0.637099
vn -0.194606 0.063900 -0.978798
vn -0.194606 0.063900 -0.978798
vn -0.194606 0.063900 -0.978798
vn -0.194606 0.063900 -0.978798
vn 0.798640 -0.301021 -0.521115
vn 0.798640 -0.301021 -0.521115
vn 0.798640 -0.301021 -0.521115
vn -0.049709 -0.532278 -0.845109
vn -0.049709 -0.532278 -0.845109
vn -0.049709 -0.532278 -0.845109
vn 0.533421 -0.349747 0.770155
vn 0.533421 -0.349747 0.770155
vn 0.533421 -0.349747 0.770155
vn 0.958922 -0.180256 0.219033
vn 0.958922 -0.180256 0.219033
vn 0.958922 -0.180256 0.219033
vn 0.222106 0.688574 0.690315
vn 0.222106 0.688574 0.690315
vn 0.222106 0.688574 0.690315
vn 0.593860 0.388335 -0.704646
vn 0.593860 0.388335 -0.704646
vn 0.593860 0.388335 -0.704646
vn 0.011692 -0.506982 -0.861877
vn 0.011692 -0.506982 -0.861877
vn 0.011692 -0.506982 -0.861877
vn 0.051066 -0.152630 0.986963
vn 0.051066 -0.152630 0.986963
vn 0.051066 -0.152630 0.986963
vn -0.559339 0.289183 -0.776861
vn -0.559339 0.289183 -0.776861
vn -0.559339 0.289183 -0.776861
vn -0.559339 0.289183 -0.776861
vn -0.222576 -0.781770 0.582491
vn -0.222576 -0.781770 0.582491
vn -0.222576 -0.781770 0.582491
vn -0.476255 0.190239 -0.858481
vn -0.476255 0.190239 -0.858481
vn -0.476255 0.190239 -0.858481
vn 0.022741 0.162009 0.986527
vn 0.022741 0.162009 0.986527
vn 0.022741 0.162009 0.986527
vn -0.913737 0.152378 -0.376651
vn -0.913737 0.152378 -0.376651
vn -0.913737 0.152378 -0.376651
vn -0.735900 -0.226279 0.638160
vn -0.735900 -0.226278 0.638160
vn -0.735900 -0.226279 0.638160
vn -0.810805 -0.186161 -0.554923
vn -0.810805 -0.186161 -0.554923
vn -0.810805 -0.186161 -0.554923
vn -0.778378 0.104665 -0.619009
vn -0.778378 0.104665 -0.619009
vn -0.778378 0.104665 -0.619009
vn -0.746162 -0.248268 0.617741
vn -0.746162 -0.248268 0.617741
vn -0.746162 -0.248268 0.617741
vn -0.394230 0.201278 0.896699
vn -0.394230 0.201278 0.896699
vn -0.394230 0.201278 0.896699
vn -0.975805 0.213177 -0.048588
vn -0.975805 0.213177 -0.048588
vn -0.975805 0.213177 -0.048588
vn -0.821231 -0.012701 0.570455
vn -0.821231 -0.012701 0.570455
vn -0.821231 -0.012701 0.570455
vn -0.926974 0.219942 -0.303882
vn -0.926974 0.219942 -0.303882
vn -0.926974 0.219942 -0.303882
vn -0.959311 0.239412 0.149684
vn -0.959311 0.239412 0.149684
vn -0.959311 0.239412 0.149684
vn -0.959311 0.239412 0.149684
vn -0.342240 0.123488 0.931463
vn -0.342240 0.123488 0.931463
vn -0.342240 0.123488 0.931463
vn -0.888716 0.281193 -0.362098
vn -0.888716 0.281193 -0.362098
vn -0.888715 0.281193 -0.362098
vn 0.484520 0.367493 0.793845
vn 0.484520 0.367493 0.793845
vn 0.484520 0.367493 0.793845
vn 0.821653 0.274174 -0.499715
vn 0.821653 0.274174 -0.499715
vn 0.821653 0.274174 -0.499715
vn 0.732120 0.421553 0.535064
vn 0.732120 0.421553 0.535064
vn 0.732120 0.421553 0.535064
vn 0.771687 0.292441 0.564781
vn 0.771687 0.292441 0.564781
vn 0.771687 0.292441 0.564781
s off
f 2/1/1 1/2/2 7/10/3
f 2/1/4 7/10/5 8/9/6 16/16/7
f 3/3/8 21/21/9 15/4/10
f 5/5/11 21/21/12 3/3/13
f 4/6/14 21/21/15 5/5/16
f 4/6/17 5/5/18 10/7/19 12/12/20
f 5/5/21 3/3/22 6/8/23
f 10/7/24 5/5/25 6/8/26
f 9/11/27 6/8/28 15/4/29
f 15/4/30 6/8/31 3/3/32
f 8/9/33 7/10/34 11/13/35
f 11/13/36 7/10/37 1/2/38
f 6/8/39 13/14/40 10/7/41
f 15/4/42 18/15/43 9/11/44
f 1/2/45 4/6/46 12/12/47 20/20/48
f 13/14/49 6/8/50 9/11/51
f 1/2/52 20/20/53 11/13/54
f 15/4/55 16/16/56 18/15/57
f 11/13/58 20/20/59 14/17/60
f 19/18/61 13/14/62 9/11/63
f 19/18/64 10/7/65 13/14/66
f 19/18/67 12/12/68 10/7/69
f 9/11/70 18/15/71 19/18/72
f 16/16/73 17/19/74 18/15/75
f 17/19/76 14/17/77 19/18/78
f 17/19/79 19/18/80 18/15/81
f 14/17/82 12/12/83 19/18/84
f 14/17/85 17/19/86 8/9/87 11/13/88
f 17/19/89 16/16/90 8/9/91
f 14/17/92 20/20/93 12/12/94
f 2/1/95 16/16/96 15/4/97
f 1/2/98 21/21/99 4/6/100
f 1/2/101 2/1/102 21/21/103
f 15/4/104 21/21/105 2/1/106
