# This file uses centimeters as units for non-parametric coordinates.

v -1.394598 16.435253 0.638229
v -2.463253 4.702968 -4.482445
v -2.621298 10.144147 0.040512
v -0.351745 12.689317 2.647980
v -1.230512 0.804105 3.346283
v -1.432362 -4.985508 -0.518707
v -0.896387 20.189028 -0.857841
v 0.820714 19.881489 -1.657272
v 0.983722 -2.235100 -3.520058
v 2.505893 1.459404 3.565315
v 1.851060 11.634664 1.502632
v 3.518327 -4.096479 0.104439
v 5.384127 2.552109 -0.250374
v 2.346678 4.295930 -4.664391
v 3.880643 8.465878 -2.837074
v 0.809889 21.782824 -0.126953
vt 0.357959 0.491909
vt 0.357919 0.491831
vt 0.357925 0.491843
vt 0.357959 0.491909
vt 0.357684 0.491428
vt 0.357959 0.491909
vt 0.357959 0.491909
vt 0.358053 0.491181
vt 0.357929 0.491510
vt 0.357959 0.491909
vt 0.357697 0.491422
vt 0.357959 0.491909
vt 0.358119 0.491394
vt 0.358050 0.491390
vt 0.358108 0.491227
vt 0.357795 0.491121
vn -0.992475 0.112001 -0.049488
vn -0.992475 0.112001 -0.049488
vn -0.992475 0.112001 -0.049488
vn -0.123223 0.207296 -0.970487
vn -0.123223 0.207296 -0.970487
vn -0.123223 0.207296 -0.970487
vn -0.123223 0.207296 -0.970487
vn -0.794571 0.093993 0.599852
vn -0.794571 0.093993 0.599852
vn -0.794571 0.093993 0.599852
vn 0.160907 0.120960 0.979529
vn 0.160907 0.120960 0.979529
vn 0.160907 0.120960 0.979529
vn 0.160907 0.120960 0.979529
vn -0.980756 -0.083592 0.176438
vn -0.980756 -0.083592 0.176438
vn -0.980756 -0.083592 0.176438
vn 0.048816 -0.555737 0.829924
vn 0.048816 -0.555737 0.829924
vn 0.048816 -0.555737 0.829924
vn -0.529218 -0.368914 -0.764089
vn -0.529217 -0.368914 -0.764089
vn -0.529218 -0.368914 -0.764089
vn -0.994824 -0.080470 0.062044
vn -0.994824 -0.080470 0.062044
vn -0.994824 -0.080470 0.062044
vn -0.243328 0.607318 -0.756278
vn -0.243328 0.607318 -0.756278
vn -0.243328 0.607318 -0.756278
vn -0.629848 0.358261 0.689159
vn -0.629848 0.358261 0.689159
vn -0.629848 0.358261 0.689159
vn -0.011500 -0.530203 0.847793
vn -0.011500 -0.530203 0.847793
vn -0.011500 -0.530203 0.847792
vn -0.050989 -0.162028 -0.985468
vn -0.050989 -0.162028 -0.985468
vn -0.050989 -0.162028 -0.985468
vn 0.148002 0.271310 0.951045
vn 0.148002 0.271310 0.951045
vn 0.148002 0.271310 0.951045
vn 0.148002 0.271310 0.951045
vn 0.214207 -0.799908 -0.560592
vn 0.214207 -0.799908 -0.560592
vn 0.214207 -0.799908 -0.560592
vn 0.733457 -0.239774 -0.636042
vn 0.733457 -0.239774 -0.636042
vn 0.733456 -0.239774 -0.636042
vn 0.808980 -0.197477 0.553674
vn 0.808979 -0.197477 0.553674
vn 0.808980 -0.197477 0.553674
vn 0.761120 0.175558 0.624400
vn 0.761120 0.175558 0.624400
vn 0.761120 0.175558 0.624400
vn 0.743183 -0.262900 -0.615274
vn 0.743183 -0.262900 -0.615274
vn 0.743183 -0.262900 -0.615274
vn 0.814338 -0.046032 -0.578562
vn 0.814338 -0.046032 -0.578562
vn 0.814338 -0.046032 -0.578562
vn 0.963258 0.244664 -0.110788
vn 0.963258 0.244664 -0.110788
vn 0.963258 0.244664 -0.110788
vn 0.963258 0.244664 -0.110788
vn 0.455398 0.211447 -0.864814
vn 0.455398 0.211447 -0.864814
vn 0.455398 0.211447 -0.864814
vn 0.764675 0.177911 0.619370
vn 0.764675 0.177911 0.619370
vn 0.764675 0.177911 0.619370
vn -0.796262 0.098554 0.596871
vn -0.796262 0.098554 0.596871
vn -0.796262 0.098554 0.596871
vn -0.935467 0.209452 -0.284661
vn -0.935467 0.209452 -0.284661
vn -0.935467 0.209452 -0.284661
s off
f 2/1/1 1/2/2 7/9/3
f 2/1/4 7/9/5 8/8/6 14/13/7
f 4/5/8 3/3/9 5/4/10
f 4/5/11 5/4/12 10/6/13 11/11/14
f 5/4/15 3/3/16 6/7/17
f 10/6/18 5/4/19 6/7/20
f 9/10/21 6/7/22 2/1/23
f 2/1/24 6/7/25 3/3/26
f 8/8/27 7/9/28 16/16/29
f 16/16/30 7/9/31 1/2/32
f 6/7/33 12/12/34 10/6/35
f 2/1/36 14/13/37 9/10/38
f 1/2/39 4/5/40 11/11/41 16/16/42
f 12/12/43 6/7/44 9/10/45
f 13/14/46 12/12/47 9/10/48
f 13/14/49 10/6/50 12/12/51
f 13/14/52 11/11/53 10/6/54
f 9/10/55 14/13/56 13/14/57
f 15/15/58 13/14/59 14/13/60
f 13/14/61 15/15/62 8/8/63 16/16/64
f 15/15/65 14/13/66 8/8/67
f 13/14/68 16/16/69 11/11/70
f 1/2/71 3/3/72 4/5/73
f 1/2/74 2/1/75 3/3/76
