# This file uses centimeters as units for non-parametric coordinates.

v 6.683304 0.000000 -3.218508
v 4.624990 0.000000 -5.799552
v 1.650641 0.000000 -7.231925
v -1.650639 0.000000 -7.231925
v -4.624989 0.000000 -5.799554
v -6.683303 0.000000 -3.218511
v -7.417907 0.000000 -0.000002
v -6.683304 0.000000 3.218508
v -4.624990 0.000000 5.799552
v -1.650641 0.000000 7.231925
v 1.650638 0.000000 7.231925
v 4.624989 0.000000 5.799554
v 6.683303 0.000000 3.218509
v 7.417907 0.000000 -0.000000
v 18.609997 2.923679 -8.962098
v 12.878519 2.923679 -16.149155
v 4.596294 2.923679 -20.137667
v -4.596289 2.923679 -20.137667
v -12.878514 2.923679 -16.149158
v -18.609997 2.923679 -8.962112
v -20.655548 2.923679 -0.000005
v -18.610001 2.923679 8.962097
v -12.878519 2.923679 16.149155
v -4.596294 2.923679 20.137667
v 4.596289 2.923679 20.137667
v 12.878515 2.923679 16.149158
v 18.609997 2.923679 8.962102
v 20.655548 2.923679 -0.000001
vt 0.722521 0.000000
vt 0.900969 0.000000
vt 0.900969 1.000000
vt 0.722521 1.000000
vt 1.000000 0.000000
vt 1.000000 1.000000
vt 1.000000 0.000000
vt 1.000000 1.000000
vt 0.900969 0.000000
vt 0.900969 1.000000
vt 0.722521 0.000000
vt 0.722521 1.000000
vt 0.500000 0.000000
vt 0.500000 1.000000
vt 0.277479 0.000000
vt 0.277479 1.000000
vt 0.099031 0.000000
vt 0.099031 1.000000
vt 0.000000 0.000000
vt 0.000000 1.000000
vt 0.000000 0.000000
vt 0.000000 1.000000
vt 0.099031 0.000000
vt 0.099031 1.000000
vt 0.277479 0.000000
vt 0.277479 1.000000
vt 0.500000 0.000000
vt 0.500000 1.000000
vn -0.194306 0.976468 0.093573
vn -0.194306 0.976468 0.093573
vn -0.134464 0.976468 0.168613
vn -0.134464 0.976468 0.168613
vn -0.047990 0.976468 0.210257
vn -0.047990 0.976468 0.210257
vn 0.047990 0.976468 0.210257
vn 0.047990 0.976468 0.210257
vn 0.134464 0.976468 0.168613
vn 0.134464 0.976468 0.168613
vn 0.194306 0.976468 0.093573
vn 0.194306 0.976468 0.093573
vn 0.215664 0.976468 0.000000
vn 0.215664 0.976468 0.000000
vn 0.194306 0.976468 -0.093573
vn 0.194306 0.976468 -0.093573
vn 0.134464 0.976468 -0.168613
vn 0.134464 0.976468 -0.168613
vn 0.047990 0.976468 -0.210257
vn 0.047990 0.976468 -0.210257
vn -0.047990 0.976468 -0.210257
vn -0.047990 0.976468 -0.210257
vn -0.134464 0.976468 -0.168613
vn -0.134464 0.976468 -0.168613
vn -0.194306 0.976468 -0.093573
vn -0.194306 0.976468 -0.093573
vn -0.215664 0.976468 -0.000000
vn -0.215664 0.976468 0.000000
s 1
f 1/1/1 15/4/2 16/3/3 2/2/4
f 2/2/4 16/3/3 17/6/5 3/5/6
f 3/5/6 17/6/5 18/8/7 4/7/8
f 4/7/8 18/8/7 19/10/9 5/9/10
f 5/9/10 19/10/9 20/12/11 6/11/12
f 6/11/12 20/12/11 21/14/13 7/13/14
f 7/13/14 21/14/13 22/16/15 8/15/16
f 8/15/16 22/16/15 23/18/17 9/17/18
f 9/17/18 23/18/17 24/20/19 10/19/20
f 10/19/20 24/20/19 25/22/21 11/21/22
f 11/21/22 25/22/21 26/24/23 12/23/24
f 12/23/24 26/24/23 27/26/25 13/25/26
f 13/25/26 27/26/25 28/28/27 14/27/28
f 14/27/28 28/28/27 15/4/2 1/1/1
