# This file uses centimeters as units for non-parametric coordinates.

v -5.126567 34.664429 -0.137882
v 3.549484 20.473675 -5.489243
v -2.318242 5.500204 -6.794460
v -6.988196 11.538113 1.243763
v -6.856190 -0.874814 -5.152634
v 1.094905 -7.980826 -3.023453
v 0.340549 35.522209 -2.599548
v 2.569025 39.294556 2.186985
v 7.430215 -2.751944 2.076458
v -8.832182 -0.338862 5.361561
v -1.696849 40.817879 2.156807
v -4.325721 13.619324 7.613682
v -2.555275 -6.290668 4.796707
v 0.050112 28.976971 5.619556
v 7.176511 10.438221 -5.199478
v 4.781229 23.744383 2.789391
v 3.400002 20.250538 8.036747
v -4.325721 13.619324 7.613686
v 7.560563 9.664390 4.953403
v 3.667912 10.060179 8.622631
v -4.425342 29.097828 3.750938
v 2.866671 28.642984 -1.286812
vt 0.357919 0.491831
vt 0.357919 0.491831
vt 0.357919 0.491831
vt 0.357959 0.491909
vt 0.357959 0.491909
vt 0.357684 0.491428
vt 0.357959 0.491909
vt 0.357959 0.491909
vt 0.358053 0.491181
vt 0.357929 0.491510
vt 0.357959 0.491909
vt 0.357713 0.491525
vt 0.357795 0.491121
vt 0.357959 0.491909
vt 0.358119 0.491394
vt 0.358108 0.491227
vt 0.357991 0.491167
vt 0.357680 0.491318
vt 0.358050 0.491390
vt 0.358108 0.491227
vt 0.357751 0.491197
vt 0.358002 0.491576
vn -0.420040 0.083948 -0.903615
vn -0.420040 0.083948 -0.903615
vn -0.420040 0.083948 -0.903615
vn 0.861235 0.229751 -0.453310
vn 0.860755 0.233412 -0.452348
vn 0.852824 0.283798 -0.438349
vn 0.861235 0.229751 -0.453310
vn -0.272622 0.189065 -0.943362
vn -0.272622 0.189066 -0.943362
vn -0.272622 0.189065 -0.943362
vn 0.152197 0.026480 -0.987995
vn 0.152197 0.026480 -0.987995
vn 0.152197 0.026480 -0.987995
vn -0.509799 0.144478 -0.848075
vn -0.509799 0.144478 -0.848075
vn -0.509799 0.144478 -0.848075
vn -0.985252 0.069983 -0.156143
vn -0.985252 0.069983 -0.156143
vn -0.985252 0.069983 -0.156143
vn -0.987211 0.158661 0.015545
vn -0.987211 0.158661 0.015545
vn -0.987211 0.158661 0.015545
vn -0.987211 0.158661 0.015545
vn 0.022168 -0.264111 -0.964238
vn 0.022168 -0.264111 -0.964238
vn 0.022168 -0.264111 -0.964238
vn -0.651419 -0.754055 -0.083988
vn -0.651419 -0.754055 -0.083988
vn -0.651419 -0.754055 -0.083988
vn 0.739075 -0.314409 -0.595747
vn 0.739075 -0.314409 -0.595747
vn 0.739075 -0.314409 -0.595747
vn 0.261657 -0.197993 -0.944635
vn 0.261657 -0.197993 -0.944634
vn 0.261657 -0.197993 -0.944634
vn 0.254183 0.698557 -0.668886
vn 0.254183 0.698557 -0.668886
vn 0.254183 0.698557 -0.668886
vn -0.418096 0.512679 -0.749904
vn -0.418096 0.512679 -0.749904
vn -0.418096 0.512679 -0.749904
vn -0.686251 -0.707856 -0.167331
vn -0.686251 -0.707856 -0.167331
vn -0.686251 -0.707856 -0.167331
vn 0.999279 -0.001702 -0.037929
vn 0.999279 -0.001702 -0.037929
vn 0.999279 -0.001702 -0.037929
vn -0.937184 0.088609 0.337395
vn -0.937184 0.088609 0.337395
vn -0.937184 0.088609 0.337395
vn -0.937184 0.088609 0.337395
vn -0.937184 0.088609 0.337395
vn 0.946986 0.123226 -0.296703
vn 0.957544 0.233149 -0.169562
vn 0.955362 0.175840 -0.237409
vn 0.397992 -0.840588 0.367444
vn 0.397992 -0.840588 0.367444
vn 0.397992 -0.840588 0.367444
vn -0.814109 0.260147 0.519183
vn -0.814109 0.260147 0.519183
vn -0.814109 0.260147 0.519183
vn 0.981473 0.190261 -0.022625
vn 0.981473 0.190261 -0.022625
vn 0.981473 0.190261 -0.022625
vn -0.371909 0.209583 0.904300
vn -0.371909 0.209583 0.904300
vn -0.371909 0.209583 0.904300
vn -0.000000 0.000000 0.000000
vn -0.923077 0.384615 0.000000
vn -0.923077 0.384615 0.000000
vn 0.357364 -0.339593 0.870039
vn 0.357364 -0.339594 0.870039
vn 0.357364 -0.339594 0.870039
vn -0.094652 -0.192517 0.976718
vn -0.094652 -0.192517 0.976718
vn -0.094652 -0.192517 0.976718
vn -0.169713 -0.103338 0.980061
vn -0.169713 -0.103338 0.980061
vn -0.169713 -0.103338 0.980061
vn 0.665843 -0.175040 0.725268
vn 0.665843 -0.175040 0.725268
vn 0.665843 -0.175040 0.725268
vn 0.889637 0.235725 0.391126
vn 0.889637 0.235725 0.391126
vn 0.889637 0.235725 0.391126
vn -0.522818 0.035223 0.851716
vn -0.522818 0.035223 0.851716
vn -0.522818 0.035223 0.851716
vn 0.687899 0.059673 0.723349
vn 0.687899 0.059673 0.723349
vn 0.687899 0.059673 0.723349
vn -0.059949 0.145313 0.987568
vn -0.059949 0.145313 0.987568
vn -0.059949 0.145313 0.987568
vn 0.090514 0.294418 0.951381
vn 0.090514 0.294418 0.951381
vn 0.090514 0.294418 0.951381
vn 0.090514 0.294418 0.951381
vn 0.928681 0.145335 0.341219
vn 0.928681 0.145335 0.341219
vn 0.928681 0.145335 0.341219
vn -0.370493 0.222653 0.901754
vn -0.370493 0.222653 0.901754
vn -0.370493 0.222653 0.901754
vn 0.955362 0.175840 -0.237409
vn 0.957544 0.233149 -0.169562
vn 0.956212 0.256622 -0.140728
vn 0.852824 0.283798 -0.438349
vn 0.860755 0.233412 -0.452348
vn 0.850733 0.294911 -0.435064
s off
f 2/1/1 1/2/2 7/10/3
f 8/9/4 22/22/5 2/1/6 7/10/7
f 1/2/8 2/1/9 3/3/10
f 3/3/11 2/1/12 15/4/13
f 5/5/14 1/2/15 3/3/16
f 1/2/17 5/5/18 4/6/19
f 4/6/20 5/5/21 10/7/22 12/12/23
f 5/5/24 3/3/25 6/8/26
f 10/7/27 5/5/28 6/8/29
f 9/11/30 6/8/31 15/4/32
f 15/4/33 6/8/34 3/3/35
f 8/9/36 7/10/37 11/13/38
f 11/13/39 7/10/40 1/2/41
f 6/8/42 13/14/43 10/7/44
f 15/4/45 19/15/46 9/11/47
f 1/2/48 4/6/49 12/12/50 18/18/51 21/21/52
f 8/9/53 16/16/54 22/22/55
f 13/14/56 6/8/57 9/11/58
f 1/2/59 21/21/60 11/13/61
f 15/4/62 16/16/63 19/15/64
f 11/13/65 21/21/66 14/17/67
f 10/7/68 18/18/69 12/12/70
f 20/19/71 13/14/72 9/11/73
f 20/19/74 10/7/75 13/14/76
f 20/19/77 18/18/78 10/7/79
f 9/11/80 19/15/81 20/19/82
f 16/16/83 17/20/84 19/15/85
f 17/20/86 14/17/87 20/19/88
f 17/20/89 20/19/90 19/15/91
f 14/17/92 18/18/93 20/19/94
f 14/17/95 17/20/96 8/9/97 11/13/98
f 17/20/99 16/16/100 8/9/101
f 14/17/102 21/21/103 18/18/104
f 22/22/105 16/16/106 15/4/107
f 2/1/108 22/22/109 15/4/110
