# This file uses centimeters as units for non-parametric coordinates.

v -11.009436 25.591534 6.356320
v -11.009439 25.591534 -6.356284
v -0.000002 25.591534 -12.712605
v 11.009436 25.591534 -6.356284
v 11.009436 25.591534 6.356320
v 0.000000 25.591534 12.712567
v -11.009436 20.027533 6.356320
v -11.009439 20.027533 -6.356284
v -0.000002 20.027533 -12.712605
v 11.009436 20.027533 -6.356284
v 11.009436 20.027533 6.356320
v 0.000000 20.027533 12.712567
v 0.000000 25.591534 0.000000
v -8.971054 17.893723 5.179422
v -8.971057 17.893723 -5.179422
v -0.000001 17.893723 -10.358914
v 8.971056 17.893723 -5.179422
v 8.971057 17.893723 5.179420
v 0.000000 17.893723 10.358844
v -11.009436 -26.207359 -6.356284
v -11.009439 -26.207359 6.356320
v -0.000002 -26.207359 12.712640
v 11.009436 -26.207359 6.356320
v 11.009436 -26.207359 -6.356284
v 0.000000 -26.207359 -12.712567
v -11.009436 -22.186737 -6.356284
v -11.009439 -22.186737 6.356320
v -0.000002 -22.186737 12.712640
v 11.009436 -22.186737 6.356320
v 11.009436 -22.186737 -6.356284
v 0.000000 -22.186737 -12.712567
v 0.000000 -26.207359 0.000000
v -8.971054 -20.052971 -5.179420
v -8.971057 -20.052971 5.179457
v -0.000001 -20.052971 10.358950
v 8.971057 -20.052971 5.179457
v 8.971056 -20.052971 -5.179422
v 0.000000 -20.052971 -10.358844
v 8.744787 8.973189 5.048786
v -0.000001 8.973189 10.097606
v -8.744788 8.973189 5.048787
v -8.744788 8.973189 -5.048784
v -0.000001 8.973189 -10.097589
v 8.744787 8.973189 -5.048784
v 8.744787 -11.132392 5.048819
v -0.000001 -11.132392 10.097626
v -8.744788 -11.132392 5.048819
v -8.744788 -11.132392 -5.048784
v -0.000001 -11.132392 -10.097589
v 8.744787 -11.132392 -5.048784
v 5.665610 25.591534 7.352565
v 5.665609 25.591534 -15.154530
v 5.665610 33.262077 7.352565
v 5.665610 33.262077 -11.387158
v -5.665610 33.262077 7.352565
v -5.665610 33.262077 -11.387158
v -5.665610 25.591534 7.352565
v -5.665610 25.591534 -15.154531
vt 0.081194 0.228082
vt 0.081194 0.228082
vt 0.081194 0.228082
vt 0.081194 0.228082
vt 0.081194 0.228082
vt 0.081194 0.228082
vt 0.081194 0.228082
vt 0.081194 0.228082
vt 0.081194 0.228082
vt 0.081194 0.228082
vt 0.081194 0.228082
vt 0.081194 0.228082
vt 0.081194 0.228082
vt 0.081194 0.228082
vt 0.081194 0.228082
vt 0.081194 0.228082
vt 0.081194 0.228082
vt 0.081194 0.228082
vt 0.081194 0.228082
vt 0.081194 0.228082
vt 0.081194 0.228082
vt 0.081194 0.228082
vt 0.081194 0.228082
vt 0.081194 0.228082
vt 0.081194 0.228082
vt 0.081194 0.228082
vt 0.081194 0.228082
vt 0.081194 0.228082
vt 0.081194 0.228082
vt 0.081194 0.228082
vt 0.081194 0.228082
vt 0.081194 0.228082
vt 0.081194 0.228082
vt 0.081194 0.228082
vt 0.081194 0.228082
vt 0.081194 0.228082
vt 0.081194 0.228082
vt 0.081194 0.228082
vt 0.081194 0.228082
vt 0.081194 0.228082
vt 0.081194 0.228082
vt 0.081194 0.228082
vt 0.081194 0.228082
vt 0.081194 0.228082
vt 0.081194 0.228082
vt 0.081194 0.228082
vt 0.081194 0.228082
vt 0.081194 0.228082
vt 0.081194 0.228082
vt 0.081194 0.228082
vt 0.081194 0.228082
vt 0.081194 0.228082
vt 0.081194 0.228082
vt 0.081194 0.228082
vt 0.081194 0.228082
vt 0.081194 0.228082
vt 0.081194 0.228082
vt 0.081194 0.228082
vt 0.081194 0.228082
vt 0.081194 0.228082
vt 0.081194 0.228082
vt 0.081194 0.228082
vt 0.081194 0.228082
vt 0.081194 0.228082
vt 0.081194 0.228082
vt 0.081194 0.228082
vt 0.081194 0.228082
vt 0.081194 0.228082
vt 0.081194 0.228082
vt 0.081194 0.228082
vt 0.081194 0.228082
vt 0.081194 0.228082
vt 0.081194 0.228082
vt 0.081194 0.228082
vt 0.081194 0.228082
vt 0.081194 0.228082
vt 0.081194 0.228082
vt 0.081194 0.228082
vt 0.100529 0.228715
vt 0.100530 0.229440
vt 0.100145 0.229386
vt 0.100142 0.228691
vt 0.101051 0.229416
vt 0.101053 0.228704
vt 0.101139 0.229343
vt 0.101142 0.228672
vt 0.100758 0.229297
vt 0.100759 0.228652
vt 0.100283 0.229317
vt 0.100281 0.228661
vt 0.100813 0.229694
vt 0.100871 0.229137
vt 0.100853 0.228843
vt 0.100803 0.229293
vt 0.101476 0.228845
vt 0.101470 0.229296
vt 0.101476 0.229140
vt 0.101469 0.229697
vn -1.000000 0.000000 0.000000
vn -1.000000 0.000000 0.000000
vn -1.000000 0.000000 0.000000
vn -1.000000 0.000000 0.000000
vn 0.500001 0.000000 -0.866025
vn 0.500001 0.000000 -0.866025
vn 0.500001 0.000000 -0.866025
vn 0.500001 0.000000 -0.866025
vn 1.000000 0.000000 0.000000
vn 1.000000 0.000000 0.000000
vn 1.000000 0.000000 0.000000
vn 1.000000 0.000000 0.000000
vn 0.499997 0.000000 0.866027
vn 0.499997 0.000000 0.866027
vn 0.499997 0.000000 0.866027
vn 0.499997 0.000000 0.866027
vn -0.499997 0.000000 0.866027
vn -0.499997 0.000000 0.866027
vn -0.499997 0.000000 0.866027
vn -0.499997 0.000000 0.866027
vn 0.000000 1.000000 0.000000
vn 0.000000 1.000000 0.000000
vn 0.000000 1.000000 0.000000
vn 0.000000 1.000000 -0.000000
vn 0.000000 1.000000 -0.000000
vn 0.000000 1.000000 -0.000000
vn 0.000000 1.000000 -0.000000
vn 0.000000 1.000000 -0.000000
vn 0.000000 1.000000 -0.000000
vn 0.000000 1.000000 0.000000
vn 0.000000 1.000000 0.000000
vn 0.000000 1.000000 0.000000
vn 0.000000 1.000000 0.000000
vn 0.000000 1.000000 0.000000
vn 0.000000 1.000000 0.000000
vn 0.000000 1.000000 0.000000
vn 0.000000 1.000000 0.000000
vn 0.000000 1.000000 0.000000
vn -0.361548 -0.690751 -0.626216
vn -0.361548 -0.690751 -0.626216
vn -0.361548 -0.690751 -0.626216
vn -0.361548 -0.690751 -0.626216
vn -0.723091 -0.690753 0.000000
vn -0.723091 -0.690753 0.000000
vn -0.723091 -0.690753 0.000000
vn -0.723091 -0.690753 0.000000
vn 0.361548 -0.690751 -0.626216
vn 0.361548 -0.690751 -0.626216
vn 0.361548 -0.690751 -0.626216
vn 0.361548 -0.690750 -0.626216
vn 0.723091 -0.690752 -0.000000
vn 0.723091 -0.690752 -0.000000
vn 0.723091 -0.690752 -0.000000
vn 0.723091 -0.690752 -0.000000
vn 0.361542 -0.690756 0.626214
vn 0.361542 -0.690756 0.626214
vn 0.361542 -0.690756 0.626214
vn 0.361542 -0.690756 0.626214
vn -0.361542 -0.690756 0.626213
vn -0.361542 -0.690756 0.626213
vn -0.361542 -0.690756 0.626213
vn -0.361542 -0.690756 0.626213
vn -1.000000 0.000000 -0.000000
vn -1.000000 0.000000 -0.000000
vn -1.000000 0.000000 -0.000000
vn -1.000000 0.000000 -0.000000
vn -0.500001 0.000000 0.866025
vn -0.500001 0.000000 0.866025
vn -0.500001 0.000000 0.866025
vn -0.500001 0.000000 0.866025
vn 0.500001 0.000000 0.866025
vn 0.500001 0.000000 0.866025
vn 0.500001 0.000000 0.866025
vn 0.500001 0.000000 0.866025
vn 1.000000 0.000000 0.000000
vn 1.000000 0.000000 0.000000
vn 1.000000 0.000000 0.000000
vn 1.000000 0.000000 0.000000
vn 0.499999 0.000000 -0.866026
vn 0.499999 0.000000 -0.866026
vn 0.499999 0.000000 -0.866026
vn 0.499999 0.000000 -0.866026
vn -0.499999 0.000000 -0.866026
vn -0.499999 0.000000 -0.866026
vn -0.499999 0.000000 -0.866026
vn -0.499999 0.000000 -0.866026
vn 0.000000 -1.000000 -0.000000
vn 0.000000 -1.000000 -0.000000
vn 0.000000 -1.000000 -0.000000
vn 0.000000 -1.000000 0.000000
vn 0.000000 -1.000000 0.000000
vn 0.000000 -1.000000 0.000000
vn 0.000000 -1.000000 0.000000
vn 0.000000 -1.000000 0.000000
vn 0.000000 -1.000000 0.000000
vn 0.000000 -1.000000 0.000000
vn 0.000000 -1.000000 0.000000
vn 0.000000 -1.000000 0.000000
vn 0.000000 -1.000000 -0.000000
vn 0.000000 -1.000000 -0.000000
vn 0.000000 -1.000000 -0.000000
vn 0.000000 -1.000000 0.000000
vn 0.000000 -1.000000 0.000000
vn 0.000000 -1.000000 0.000000
vn -0.999678 0.025356 -0.000000
vn -0.999678 0.025356 -0.000000
vn -0.999678 0.025356 -0.000000
vn -0.999678 0.025356 -0.000000
vn -0.499841 0.025359 0.865746
vn -0.499841 0.025359 0.865746
vn -0.499841 0.025359 0.865746
vn -0.499841 0.025359 0.865746
vn 0.499841 0.025359 0.865746
vn 0.499841 0.025359 0.865746
vn 0.499841 0.025359 0.865746
vn 0.499841 0.025359 0.865746
vn 0.999678 0.025357 -0.000000
vn 0.999678 0.025357 -0.000000
vn 0.999678 0.025357 -0.000000
vn 0.999678 0.025357 -0.000000
vn 0.499838 0.025356 -0.865747
vn 0.499838 0.025356 -0.865747
vn 0.499838 0.025356 -0.865747
vn 0.499838 0.025356 -0.865747
vn -0.499839 0.025356 -0.865747
vn -0.499839 0.025356 -0.865747
vn -0.499838 0.025356 -0.865747
vn -0.499839 0.025356 -0.865747
vn -0.723084 0.690760 -0.000000
vn -0.723084 0.690760 -0.000000
vn -0.723084 0.690760 -0.000000
vn -0.723084 0.690760 -0.000000
vn -0.361545 0.690758 0.626210
vn -0.361545 0.690758 0.626210
vn -0.361545 0.690758 0.626210
vn -0.361545 0.690758 0.626210
vn 0.361545 0.690758 0.626210
vn 0.361545 0.690758 0.626210
vn 0.361545 0.690758 0.626210
vn 0.361545 0.690758 0.626210
vn 0.723084 0.690760 0.000000
vn 0.723084 0.690760 0.000000
vn 0.723084 0.690760 0.000000
vn 0.723084 0.690760 0.000000
vn 0.361541 0.690760 -0.626209
vn 0.361541 0.690761 -0.626209
vn 0.361541 0.690760 -0.626209
vn 0.361541 0.690761 -0.626209
vn -0.361541 0.690761 -0.626209
vn -0.361541 0.690761 -0.626209
vn -0.361541 0.690761 -0.626209
vn -0.361541 0.690761 -0.626209
vn 0.999678 -0.025357 -0.000000
vn 0.999678 -0.025357 -0.000000
vn 0.999678 -0.025357 -0.000000
vn 0.999678 -0.025357 -0.000000
vn 0.499839 -0.025355 0.865747
vn 0.499839 -0.025355 0.865747
vn 0.499839 -0.025355 0.865747
vn 0.499839 -0.025355 0.865747
vn -0.499839 -0.025355 0.865747
vn -0.499839 -0.025355 0.865747
vn -0.499839 -0.025355 0.865747
vn -0.499839 -0.025355 0.865747
vn -0.999678 -0.025357 0.000000
vn -0.999678 -0.025357 0.000000
vn -0.999678 -0.025357 0.000000
vn -0.999678 -0.025357 0.000000
vn -0.499841 -0.025359 -0.865746
vn -0.499841 -0.025359 -0.865746
vn -0.499841 -0.025359 -0.865746
vn -0.499841 -0.025359 -0.865746
vn 0.499841 -0.025359 -0.865746
vn 0.499841 -0.025359 -0.865746
vn 0.499841 -0.025359 -0.865746
vn 0.499841 -0.025359 -0.865746
vn 1.000000 0.000000 0.000000
vn 1.000000 0.000000 0.000000
vn 1.000000 0.000000 0.000000
vn 1.000000 0.000000 0.000000
vn 0.500001 0.000001 0.866025
vn 0.500001 0.000001 0.866025
vn 0.500001 0.000001 0.866025
vn 0.500001 0.000001 0.866025
vn -0.500001 0.000001 0.866025
vn -0.500001 0.000001 0.866025
vn -0.500001 0.000001 0.866025
vn -0.500001 0.000001 0.866025
vn -1.000000 0.000000 0.000000
vn -1.000000 0.000000 0.000000
vn -1.000000 0.000000 0.000000
vn -1.000000 0.000000 0.000000
vn -0.500000 0.000000 -0.866025
vn -0.500000 0.000000 -0.866025
vn -0.500000 0.000000 -0.866025
vn -0.500000 0.000000 -0.866025
vn 0.500000 0.000000 -0.866026
vn 0.500000 0.000000 -0.866026
vn 0.500000 0.000000 -0.866026
vn 0.500000 0.000000 -0.866026
vn 1.000000 0.000000 -0.000000
vn 1.000000 0.000000 -0.000000
vn 1.000000 0.000000 -0.000000
vn 1.000000 0.000000 -0.000000
vn 0.000000 1.000000 0.000000
vn 0.000000 1.000000 0.000000
vn 0.000000 1.000000 0.000000
vn 0.000000 1.000000 0.000000
vn -1.000000 0.000000 0.000000
vn -1.000000 0.000000 0.000000
vn -1.000000 0.000000 0.000000
vn -1.000000 0.000000 0.000000
vn 0.000000 0.440846 -0.897583
vn 0.000000 0.440846 -0.897583
vn 0.000000 0.440846 -0.897583
vn 0.000000 0.440846 -0.897583
vn 0.000000 0.000000 1.000000
vn 0.000000 0.000000 1.000000
vn 0.000000 0.000000 1.000000
vn 0.000000 0.000000 1.000000
vn 0.000000 -1.000000 0.000000
vn 0.000000 -1.000000 0.000000
vn 0.000000 -1.000000 0.000000
vn 0.000000 -1.000000 0.000000
vn -0.500001 0.000000 -0.866025
vn -0.500001 0.000000 -0.866025
vn -0.500001 0.000000 -0.866025
vn -0.500001 0.000000 -0.866025
s off
f 7/1/1 1/2/2 2/3/3 8/4/4
f 9/6/5 3/5/6 4/7/7 10/8/8
f 10/8/9 4/7/10 5/9/11 11/10/12
f 11/10/13 5/9/14 6/11/15 12/12/16
f 12/12/17 6/11/18 1/13/19 7/14/20
f 2/15/21 1/16/22 13/17/23
f 3/18/24 2/15/25 13/17/26
f 4/19/27 3/18/28 13/17/29
f 5/20/30 4/19/31 13/17/32
f 6/21/33 5/20/34 13/17/35
f 1/16/36 6/21/37 13/17/38
f 15/24/39 8/4/40 9/27/41 16/26/42
f 8/25/43 15/24/44 14/22/45 7/23/46
f 10/29/47 17/28/48 16/26/49 9/27/50
f 11/31/51 18/30/52 17/28/53 10/29/54
f 12/33/55 19/32/56 18/30/57 11/31/58
f 7/23/59 14/22/60 19/32/61 12/33/62
f 26/34/63 20/35/64 21/36/65 27/37/66
f 27/37/67 21/36/68 22/38/69 28/39/70
f 28/39/71 22/38/72 23/40/73 29/41/74
f 29/41/75 23/40/76 24/42/77 30/43/78
f 30/43/79 24/42/80 25/44/81 31/45/82
f 31/45/83 25/44/84 20/46/85 26/47/86
f 21/48/87 20/49/88 32/50/89
f 22/51/90 21/48/91 32/50/92
f 23/52/93 22/51/94 32/50/95
f 24/53/96 23/52/97 32/50/98
f 25/54/99 24/53/100 32/50/101
f 20/49/102 25/54/103 32/50/104
f 48/67/105 33/55/106 34/57/107 47/68/108
f 47/68/109 34/57/110 35/59/111 46/69/112
f 46/69/113 35/59/114 36/61/115 45/70/116
f 45/70/117 36/61/118 37/63/119 50/71/120
f 50/71/121 37/63/122 38/65/123 49/72/124
f 49/72/125 38/65/126 33/55/127 48/67/128
f 27/58/129 34/57/130 33/55/131 26/56/132
f 28/60/133 35/59/134 34/57/135 27/58/136
f 29/62/137 36/61/138 35/59/139 28/60/140
f 30/64/141 37/63/142 36/61/143 29/62/144
f 31/66/145 38/65/146 37/63/147 30/64/148
f 26/56/149 33/55/150 38/65/151 31/66/152
f 17/28/153 18/30/154 39/73/155 44/78/156
f 39/73/157 18/30/158 19/32/159 40/74/160
f 40/74/161 19/32/162 14/22/163 41/75/164
f 41/75/165 14/22/166 15/24/167 42/76/168
f 42/76/169 15/24/170 16/26/171 43/77/172
f 43/77/173 16/26/174 17/28/175 44/78/176
f 39/79/177 45/80/178 50/81/179 44/82/180
f 46/83/181 45/80/182 39/79/183 40/84/184
f 47/85/185 46/83/186 40/84/187 41/86/188
f 48/87/189 47/85/190 41/86/191 42/88/192
f 49/89/193 48/87/194 42/88/195 43/90/196
f 50/81/197 49/89/198 43/90/199 44/82/200
f 51/91/201 52/92/202 54/93/203 53/94/204
f 53/94/205 54/93/206 56/95/207 55/96/208
f 55/96/209 56/95/210 58/97/211 57/98/212
f 52/92/213 58/97/214 56/95/215 54/93/216
f 57/98/217 51/91/218 53/94/219 55/96/220
f 51/91/221 57/98/222 58/97/223 52/92/224
f 9/27/225 8/4/226 2/3/227 3/5/228
