# This file uses centimeters as units for non-parametric coordinates.

v 0.000000 54.881573 0.000000
v 49.087570 24.543785 0.000000
v 15.168892 24.543785 -46.685059
v -39.712685 24.543785 -28.852945
v -39.712677 24.543785 28.852957
v 15.168900 24.543785 46.685055
v 39.712681 -24.543785 -28.852951
v -15.168896 -24.543785 -46.685055
v -49.087570 -24.543785 0.000004
v -15.168877 -24.543785 46.685059
v 39.712677 -24.543785 28.852955
v 0.000000 -54.881573 0.000000
v 19.797382 51.186428 0.000000
v 36.928875 40.598583 0.000000
v 6.117727 51.186428 -18.828430
v 11.411648 40.598583 -35.121449
v -16.016420 51.186428 -11.636608
v -29.876091 40.598583 -21.706244
v -16.016418 51.186428 11.636612
v -29.876085 40.598583 21.706251
v 6.117730 51.186428 18.828428
v 11.411654 40.598583 35.121445
v 43.046600 28.363129 -18.828430
v 31.209030 28.363129 -35.121449
v -4.604772 28.363129 -46.758057
v -23.758364 28.363129 -40.534676
v -45.892506 28.363129 -10.069633
v -45.892502 28.363129 10.069644
v -23.758352 28.363129 40.534676
v -4.604764 28.363129 46.758057
v 31.209034 28.363129 35.121445
v 43.046604 28.363129 18.828428
v 52.945290 8.565745 -11.636609
v 49.673466 -8.565745 -21.706247
v 5.293920 8.565745 -53.949879
v -5.293924 -8.565745 -53.949875
v -49.673473 8.565745 -21.706242
v -52.945297 -8.565745 -11.636604
v -35.993813 8.565747 40.534691
v -27.428061 -8.565747 46.758064
v 27.428074 8.565745 46.758049
v 35.993813 -8.565745 40.534676
v 52.945290 8.565745 11.636611
v 49.673466 -8.565745 21.706251
v 27.428066 8.565745 -46.758060
v 35.993813 -8.565745 -40.534676
v -35.993820 8.565745 -40.534672
v -27.428070 -8.565745 -46.758049
v -49.673466 8.565745 21.706255
v -52.945290 -8.565745 11.636615
v 5.293933 8.565745 53.949875
v -5.293907 -8.565745 53.949879
v 23.758358 -28.363129 -40.534676
v 4.604767 -28.363129 -46.758057
v -31.209032 -28.363129 -35.121441
v -43.046604 -28.363129 -18.828426
v -43.046600 -28.363131 18.828438
v -31.209026 -28.363131 35.121456
v 4.604782 -28.363129 46.758057
v 23.758364 -28.363129 40.534679
v 45.892502 -28.363129 10.069640
v 45.892506 -28.363129 -10.069636
v 16.016418 -51.186428 -11.636609
v 29.876087 -40.598583 -21.706247
v -6.117729 -51.186428 -18.828428
v -11.411651 -40.598583 -35.121445
v -19.797382 -51.186428 0.000002
v -36.928875 -40.598583 0.000003
v -6.117721 -51.186428 18.828430
v -11.411636 -40.598583 35.121449
v 16.016418 -51.186428 11.636611
v 29.876085 -40.598583 21.706251
v 26.316034 44.202824 -19.119720
v -10.051834 44.202824 -30.936354
v -32.528408 44.202824 0.000005
v -10.051827 44.202824 30.936354
v 26.316036 44.202824 19.119719
v 54.083347 -9.326190 0.000002
v 16.712673 -9.326190 -51.436321
v -43.754353 -9.326191 -31.789392
v -43.754345 -9.326191 31.789402
v 16.712681 -9.326189 51.436317
v 43.754349 9.326190 -31.789398
v -16.712679 9.326190 -51.436321
v -54.083355 9.326191 0.000006
v -16.712667 9.326191 51.436333
v 43.754353 9.326191 31.789394
v 10.051832 -44.202824 -30.936354
v -26.316036 -44.202824 -19.119717
v -26.316029 -44.202824 19.119722
v 10.051836 -44.202816 30.936354
v 32.528408 -44.202824 0.000002
vt 0.316949 0.307246
vt 0.316949 0.307246
vt 0.316949 0.307246
vt 0.316949 0.307246
vt 0.316949 0.307246
vt 0.316949 0.307246
vt 0.316949 0.307246
vt 0.316949 0.307246
vt 0.316949 0.307246
vt 0.316949 0.307246
vt 0.316949 0.307246
vt 0.316949 0.307246
vt 0.316949 0.307246
vt 0.316949 0.307246
vt 0.316949 0.307246
vt 0.316949 0.307246
vt 0.316949 0.307246
vt 0.316949 0.307246
vt 0.316949 0.307246
vt 0.316949 0.307246
vt 0.316949 0.307246
vt 0.316949 0.307246
vt 0.316949 0.307246
vt 0.316949 0.307246
vt 0.316949 0.307246
vt 0.316949 0.307246
vt 0.316949 0.307246
vt 0.316949 0.307246
vt 0.316949 0.307246
vt 0.316949 0.307246
vt 0.316949 0.307246
vt 0.316949 0.307246
vt 0.316949 0.307246
vt 0.316949 0.307246
vt 0.316949 0.307246
vt 0.316949 0.307246
vt 0.316949 0.307246
vt 0.316949 0.307246
vt 0.316949 0.307246
vt 0.316949 0.307246
vt 0.316949 0.307246
vt 0.316949 0.307246
vt 0.316949 0.307246
vt 0.316949 0.307246
vt 0.316949 0.307246
vt 0.316949 0.307246
vt 0.316949 0.307246
vt 0.316949 0.307246
vt 0.316949 0.307246
vt 0.316949 0.307246
vt 0.316949 0.307246
vt 0.316949 0.307246
vt 0.316949 0.307246
vt 0.316949 0.307246
vt 0.316949 0.307246
vt 0.316949 0.307246
vt 0.316949 0.307246
vt 0.316949 0.307246
vt 0.316949 0.307246
vt 0.316949 0.307246
vt 0.316949 0.307246
vt 0.316949 0.307246
vt 0.316949 0.307246
vt 0.316949 0.307246
vt 0.316949 0.307246
vt 0.316949 0.307246
vt 0.316949 0.307246
vt 0.316949 0.307246
vt 0.316949 0.307246
vt 0.316949 0.307246
vt 0.316949 0.307246
vt 0.316949 0.307246
vt 0.316949 0.307246
vt 0.316949 0.307246
vt 0.316949 0.307246
vt 0.316949 0.307246
vt 0.316949 0.307246
vt 0.316949 0.307246
vt 0.316949 0.307246
vt 0.316949 0.307246
vt 0.316949 0.307246
vt 0.316949 0.307246
vt 0.316949 0.307246
vt 0.316949 0.307246
vt 0.316949 0.307246
vt 0.316949 0.307246
vt 0.316949 0.307246
vt 0.316949 0.307246
vt 0.316949 0.307246
vt 0.316949 0.307246
vt 0.316949 0.307246
vt 0.316949 0.307246
vt 0.316949 0.307246
vt 0.316949 0.307246
vt 0.316949 0.307246
vt 0.316949 0.307246
vt 0.316949 0.307246
vt 0.316949 0.307246
vt 0.316949 0.307246
vt 0.316949 0.307246
vt 0.316949 0.307246
vt 0.316949 0.307246
vt 0.316949 0.307246
vt 0.316949 0.307246
vt 0.316949 0.307246
vt 0.316949 0.307246
vt 0.316949 0.307246
vt 0.316949 0.307246
vt 0.316949 0.307246
vt 0.316949 0.307246
vt 0.316949 0.307246
vt 0.316949 0.307246
vt 0.316949 0.307246
vt 0.316949 0.307246
vt 0.316949 0.307246
vt 0.316949 0.307246
vt 0.316949 0.307246
vt 0.316949 0.307246
vt 0.316949 0.307246
vt 0.316949 0.307246
vt 0.316949 0.307246
vt 0.316949 0.307246
vt 0.316949 0.307246
vn 0.181871 0.974404 -0.132137
vn 0.181871 0.974404 -0.132137
vn 0.181871 0.974404 -0.132137
vn 0.521246 0.843394 -0.130342
vn 0.521246 0.843394 -0.130342
vn 0.285037 0.843394 -0.455457
vn 0.790198 0.598437 -0.132137
vn 0.790198 0.598437 -0.132137
vn 0.618337 0.644853 -0.449248
vn 0.369854 0.598437 -0.710691
vn -0.069468 0.974404 -0.213802
vn 0.037111 0.843394 -0.536013
vn -0.345084 0.843394 -0.411830
vn 0.118515 0.598437 -0.792356
vn -0.236184 0.644853 -0.726899
vn -0.561616 0.598437 -0.571368
vn -0.224804 0.974404 0.000000
vn -0.498310 0.843394 -0.200932
vn -0.498310 0.843394 0.200932
vn -0.716952 0.598437 -0.357566
vn -0.764307 0.644853 0.000000
vn -0.716952 0.598437 0.357566
vn -0.069468 0.974404 0.213802
vn -0.345084 0.843394 0.411830
vn 0.037111 0.843394 0.536013
vn -0.561616 0.598437 0.571368
vn -0.236184 0.644853 0.726899
vn 0.118515 0.598437 0.792356
vn 0.285037 0.843394 0.455457
vn 0.369854 0.598437 0.710691
vn 0.618337 0.644853 0.449248
vn 0.972069 0.234695 0.000000
vn 0.972069 0.234695 0.000000
vn 0.977206 -0.068525 0.200932
vn 0.977206 -0.068525 0.200932
vn 0.977206 -0.068525 -0.200932
vn 0.855889 -0.373632 0.357566
vn 0.855889 -0.373632 0.357566
vn 0.918582 -0.395230 0.000000
vn 0.855889 -0.373632 -0.357566
vn 0.300386 0.234695 -0.924493
vn 0.300386 0.234695 -0.924493
vn 0.493070 -0.068525 -0.867287
vn 0.493070 -0.068525 -0.867287
vn 0.110876 -0.068525 -0.991469
vn 0.604549 -0.373632 -0.703505
vn 0.283858 -0.395230 -0.873624
vn -0.075581 -0.373632 -0.924493
vn -0.786420 0.234695 -0.571368
vn -0.786420 0.234695 -0.571368
vn -0.672471 -0.068525 -0.736944
vn -0.672471 -0.068525 -0.736944
vn -0.908681 -0.068525 -0.411830
vn -0.482257 -0.373632 -0.792356
vn -0.743149 -0.395230 -0.539929
vn -0.902601 -0.373632 -0.213802
vn -0.786420 0.234695 0.571368
vn -0.786420 0.234695 0.571368
vn -0.908681 -0.068525 0.411830
vn -0.908680 -0.068525 0.411830
vn -0.672471 -0.068525 0.736944
vn -0.902601 -0.373632 0.213802
vn -0.743149 -0.395230 0.539929
vn -0.482256 -0.373632 0.792356
vn 0.300386 0.234695 0.924493
vn 0.300386 0.234695 0.924493
vn 0.110876 -0.068525 0.991469
vn 0.110876 -0.068525 0.991469
vn 0.493070 -0.068525 0.867287
vn -0.075581 -0.373632 0.924493
vn 0.283858 -0.395229 0.873624
vn 0.672471 0.068525 -0.736944
vn -0.493071 0.068525 -0.867287
vn -0.977206 0.068525 0.200932
vn -0.110875 0.068525 0.991469
vn 0.908681 0.068525 0.411830
vn 0.069468 -0.974404 -0.213802
vn 0.069468 -0.974404 -0.213802
vn 0.069468 -0.974404 -0.213802
vn -0.037111 -0.843394 -0.536013
vn -0.037111 -0.843394 -0.536013
vn 0.345084 -0.843394 -0.411830
vn -0.181871 -0.974404 -0.132137
vn -0.521246 -0.843394 -0.130342
vn -0.521246 -0.843394 -0.130342
vn -0.181871 -0.974404 0.132137
vn -0.285037 -0.843394 0.455457
vn -0.285037 -0.843394 0.455457
vn 0.069468 -0.974404 0.213802
vn 0.345084 -0.843394 0.411830
vn 0.345084 -0.843394 0.411830
vn 0.498310 -0.843394 -0.200932
s 1
f 1/93/1 13/13/2 15/15/3
f 13/13/2 14/14/4 73/73/5
f 13/13/2 73/73/5 15/15/3
f 15/15/3 73/73/5 16/16/6
f 14/14/4 2/2/7 23/23/8
f 14/14/4 23/23/8 73/73/5
f 73/73/5 23/23/8 24/24/9
f 73/73/5 24/24/9 16/16/6
f 16/16/6 24/24/9 3/3/10
f 1/94/1 15/15/3 17/17/11
f 15/15/3 16/16/6 74/74/12
f 15/15/3 74/74/12 17/17/11
f 17/17/11 74/74/12 18/18/13
f 16/16/6 3/3/10 25/25/14
f 16/16/6 25/25/14 74/74/12
f 74/74/12 25/25/14 26/26/15
f 74/74/12 26/26/15 18/18/13
f 18/18/13 26/26/15 4/4/16
f 1/95/1 17/96/11 19/19/17
f 17/97/11 18/98/13 75/75/18
f 17/99/11 75/75/18 19/19/17
f 19/19/17 75/75/18 20/20/19
f 18/18/13 4/4/16 27/27/20
f 18/100/13 27/101/20 75/75/18
f 75/75/18 27/102/20 28/28/21
f 75/75/18 28/28/21 20/20/19
f 20/20/19 28/28/21 5/5/22
f 1/103/1 19/19/17 21/21/23
f 19/19/17 20/20/19 76/76/24
f 19/19/17 76/76/24 21/21/23
f 21/21/23 76/76/24 22/22/25
f 20/20/19 5/5/22 29/29/26
f 20/20/19 29/29/26 76/76/24
f 76/76/24 29/29/26 30/30/27
f 76/76/24 30/30/27 22/22/25
f 22/22/25 30/30/27 6/6/28
f 1/1/1 21/21/23 13/13/2
f 21/21/23 22/22/25 77/77/29
f 21/21/23 77/77/29 13/13/2
f 13/13/2 77/77/29 14/14/4
f 22/22/25 6/6/28 31/31/30
f 22/22/25 31/31/30 77/77/29
f 77/77/29 31/31/30 32/32/31
f 77/77/29 32/32/31 14/14/4
f 14/14/4 32/32/31 2/2/7
f 2/2/7 43/43/32 33/33/33
f 43/43/32 44/44/34 78/78/35
f 43/43/32 78/78/35 33/33/33
f 33/33/33 78/78/35 34/34/36
f 44/44/34 11/11/37 61/61/38
f 44/44/34 61/61/38 78/78/35
f 78/78/35 61/61/38 62/62/39
f 78/78/35 62/62/39 34/34/36
f 34/34/36 62/62/39 7/7/40
f 3/3/10 45/45/41 35/35/42
f 45/45/41 46/46/43 79/79/44
f 45/45/41 79/79/44 35/35/42
f 35/35/42 79/79/44 36/36/45
f 46/46/43 7/7/40 53/53/46
f 46/46/43 53/53/46 79/79/44
f 79/79/44 53/53/46 54/54/47
f 79/79/44 54/54/47 36/36/45
f 36/36/45 54/54/47 8/8/48
f 4/4/16 47/47/49 37/37/50
f 47/47/49 48/48/51 80/80/52
f 47/47/49 80/80/52 37/37/50
f 37/37/50 80/80/52 38/38/53
f 48/48/51 8/8/48 55/55/54
f 48/48/51 55/55/54 80/80/52
f 80/80/52 55/55/54 56/56/55
f 80/80/52 56/56/55 38/38/53
f 38/104/53 56/105/55 9/9/56
f 5/5/22 49/49/57 39/39/58
f 49/49/57 50/50/59 81/81/60
f 49/49/57 81/81/60 39/39/58
f 39/39/58 81/81/60 40/40/61
f 50/50/59 9/9/56 57/57/62
f 50/50/59 57/57/62 81/81/60
f 81/81/60 57/57/62 58/58/63
f 81/81/60 58/58/63 40/40/61
f 40/40/61 58/58/63 10/10/64
f 6/6/28 51/51/65 41/41/66
f 51/51/65 52/52/67 82/82/68
f 51/51/65 82/82/68 41/41/66
f 41/41/66 82/82/68 42/42/69
f 52/52/67 10/10/64 59/59/70
f 52/52/67 59/59/70 82/82/68
f 82/82/68 59/59/70 60/60/71
f 82/82/68 60/60/71 42/42/69
f 42/42/69 60/60/71 11/11/37
f 7/7/40 46/46/43 34/34/36
f 46/46/43 45/45/41 83/83/72
f 46/46/43 83/83/72 34/34/36
f 34/34/36 83/83/72 33/33/33
f 45/45/41 3/3/10 24/24/9
f 45/45/41 24/24/9 83/83/72
f 83/83/72 24/24/9 23/23/8
f 83/83/72 23/23/8 33/33/33
f 33/33/33 23/23/8 2/2/7
f 8/8/48 48/48/51 36/36/45
f 48/48/51 47/47/49 84/84/73
f 48/48/51 84/84/73 36/36/45
f 36/36/45 84/84/73 35/35/42
f 47/47/49 4/4/16 26/26/15
f 47/47/49 26/26/15 84/84/73
f 84/84/73 26/26/15 25/25/14
f 84/84/73 25/25/14 35/35/42
f 35/35/42 25/25/14 3/3/10
f 9/9/56 50/50/59 38/106/53
f 50/50/59 49/49/57 85/85/74
f 50/50/59 85/85/74 38/107/53
f 38/108/53 85/85/74 37/109/50
f 49/49/57 5/5/22 28/28/21
f 49/49/57 28/28/21 85/85/74
f 85/85/74 28/28/21 27/110/20
f 85/85/74 27/111/20 37/112/50
f 37/37/50 27/27/20 4/4/16
f 10/10/64 52/52/67 40/40/61
f 52/52/67 51/51/65 86/86/75
f 52/52/67 86/86/75 40/40/61
f 40/40/61 86/86/75 39/39/58
f 51/51/65 6/6/28 30/30/27
f 51/51/65 30/30/27 86/86/75
f 86/86/75 30/30/27 29/29/26
f 86/86/75 29/29/26 39/39/58
f 39/39/58 29/29/26 5/5/22
f 11/11/37 44/44/34 42/42/69
f 44/44/34 43/43/32 87/87/76
f 44/44/34 87/87/76 42/42/69
f 42/42/69 87/87/76 41/41/66
f 43/43/32 2/2/7 32/32/31
f 43/43/32 32/32/31 87/87/76
f 87/87/76 32/32/31 31/31/30
f 87/87/76 31/31/30 41/41/66
f 41/41/66 31/31/30 6/6/28
f 12/113/77 65/65/78 63/63/79
f 65/65/78 66/66/80 88/88/81
f 65/65/78 88/88/81 63/63/79
f 63/63/79 88/88/81 64/64/82
f 66/66/80 8/8/48 54/54/47
f 66/66/80 54/54/47 88/88/81
f 88/88/81 54/54/47 53/53/46
f 88/88/81 53/53/46 64/64/82
f 64/64/82 53/53/46 7/7/40
f 12/114/77 67/67/83 65/115/78
f 67/67/83 68/68/84 89/116/85
f 67/67/83 89/117/85 65/118/78
f 65/65/78 89/89/85 66/66/80
f 68/68/84 9/9/56 56/119/55
f 68/68/84 56/120/55 89/121/85
f 89/89/85 56/56/55 55/55/54
f 89/89/85 55/55/54 66/66/80
f 66/66/80 55/55/54 8/8/48
f 12/122/77 69/69/86 67/67/83
f 69/69/86 70/70/87 90/90/88
f 69/69/86 90/90/88 67/67/83
f 67/67/83 90/90/88 68/68/84
f 70/70/87 10/10/64 58/58/63
f 70/70/87 58/58/63 90/90/88
f 90/90/88 58/58/63 57/57/62
f 90/90/88 57/57/62 68/68/84
f 68/68/84 57/57/62 9/9/56
f 12/123/77 71/71/89 69/69/86
f 71/71/89 72/72/90 91/91/91
f 71/71/89 91/91/91 69/69/86
f 69/69/86 91/91/91 70/70/87
f 72/72/90 11/11/37 60/60/71
f 72/72/90 60/60/71 91/91/91
f 91/91/91 60/60/71 59/59/70
f 91/91/91 59/59/70 70/70/87
f 70/70/87 59/59/70 10/10/64
f 12/12/77 63/63/79 71/71/89
f 63/63/79 64/64/82 92/92/92
f 63/63/79 92/92/92 71/71/89
f 71/71/89 92/92/92 72/72/90
f 64/64/82 7/7/40 62/62/39
f 64/64/82 62/62/39 92/92/92
f 92/92/92 62/62/39 61/61/38
f 92/92/92 61/61/38 72/72/90
f 72/72/90 61/61/38 11/11/37
