# This file uses centimeters as units for non-parametric coordinates.

v -2.436990 2.833637 -4.174556
v -1.822490 7.126030 1.437392
v -2.498130 0.026510 3.082980
v 2.668779 -0.095731 4.174556
v 3.953069 3.566884 -2.539507
v -0.433055 7.512707 -2.381552
v 2.965319 6.388696 2.120352
v -2.446715 -7.401543 0.918037
v 2.753343 -3.536088 3.579220
v -1.609631 -7.025400 -3.487762
v 4.045030 -5.194131 -2.328431
v 1.204776 -7.512707 -0.336214
v -4.045030 1.292599 -0.035244
vt 0.357959 0.491909
vt 0.357847 0.491709
vt 0.357959 0.491909
vt 0.357959 0.491909
vt 0.358090 0.491352
vt 0.357945 0.491824
vt 0.357806 0.491522
vt 0.357955 0.491902
vt 0.357959 0.491909
vt 0.357959 0.491909
vt 0.358014 0.491673
vt 0.357991 0.491753
vt 0.357943 0.491877
vn 0.209416 0.270401 -0.939696
vn 0.209416 0.270401 -0.939696
vn 0.209416 0.270401 -0.939696
vn -0.844478 0.195907 0.498476
vn -0.844478 0.195907 0.498476
vn -0.844478 0.195907 0.498476
vn -0.252163 -0.241166 0.937151
vn -0.252163 -0.241166 0.937151
vn -0.252163 -0.241166 0.937151
vn -0.252163 -0.241166 0.937151
vn 0.232995 -0.035359 -0.971835
vn 0.232995 -0.035359 -0.971835
vn 0.232995 -0.035359 -0.971835
vn 0.232995 -0.035359 -0.971835
vn 0.979528 0.007836 0.201157
vn 0.979528 0.007836 0.201157
vn 0.979528 0.007836 0.201157
vn 0.979528 0.007836 0.201157
vn 0.980223 0.017616 0.197110
vn 0.980223 0.017616 0.197110
vn 0.980223 0.017616 0.197110
vn -0.146372 0.269700 0.951755
vn -0.146372 0.269700 0.951755
vn -0.146372 0.269700 0.951755
vn -0.146372 0.269700 0.951755
vn 0.203525 -0.726018 0.656868
vn 0.203525 -0.726018 0.656868
vn 0.203525 -0.726018 0.656868
vn 0.632277 0.714793 -0.298825
vn 0.632277 0.714793 -0.298825
vn 0.632277 0.714793 -0.298825
vn -0.878652 0.443793 -0.176118
vn -0.878652 0.443793 -0.176118
vn -0.878652 0.443793 -0.176118
vn 0.170587 -0.939333 -0.297582
vn 0.170587 -0.939332 -0.297582
vn 0.170587 -0.939332 -0.297582
vn 0.170587 -0.939332 -0.297582
vn -0.941164 -0.149827 -0.302923
vn -0.941164 -0.149827 -0.302923
vn -0.941164 -0.149827 -0.302923
vn -0.941164 -0.149827 -0.302923
vn -0.908003 -0.123012 0.400499
vn -0.908003 -0.123012 0.400499
vn -0.908003 -0.123012 0.400499
vn 0.724786 -0.605643 0.328452
vn 0.724786 -0.605643 0.328452
vn 0.724786 -0.605643 0.328452
vn -0.872653 0.402347 -0.276756
vn -0.872653 0.402347 -0.276756
vn -0.872653 0.402347 -0.276756
vn 0.130100 0.980600 0.146622
vn 0.130100 0.980600 0.146622
vn 0.130100 0.980600 0.146622
s off
f 1/1/1 6/6/2 5/5/3
f 13/13/4 3/3/5 2/2/6
f 4/4/7 3/3/8 8/8/9 9/9/10
f 1/1/11 5/5/12 11/11/13 10/10/14
f 5/5/15 4/4/16 9/9/17 11/11/18
f 5/5/19 7/7/20 4/4/21
f 7/7/22 2/2/23 3/3/24 4/4/25
f 9/9/26 8/8/27 12/12/28
f 5/5/29 6/6/30 7/7/31
f 1/1/32 13/13/33 6/6/34
f 11/11/35 12/12/36 8/8/37 10/10/38
f 1/1/39 10/10/40 8/8/41 13/13/42
f 8/8/43 3/3/44 13/13/45
f 9/9/46 12/12/47 11/11/48
f 6/6/49 13/13/50 2/2/51
f 7/7/52 6/6/53 2/2/54
