# This file uses centimeters as units for non-parametric coordinates.

v 54.440903 -0.153946 25.173473
v 14.735695 87.148788 -90.110512
v -50.591934 165.838989 -84.745697
v -36.052734 18.057430 32.435940
v -3.902924 -57.184498 -63.335388
v -103.678078 -22.811409 -21.089561
v 47.310364 59.270226 -17.037064
v 48.082500 -41.985455 -2.567005
v -6.729336 -6.648376 64.508255
v 35.139969 6.390823 -95.090805
v -57.374832 18.828074 -4.116333
v -13.997589 21.413208 51.443581
v 28.485107 23.452404 48.505035
v -1.270387 59.990685 16.972385
v 33.221008 41.954681 26.153210
v -38.060486 57.931519 -62.072418
v -17.178436 164.444901 -249.823776
v -40.426964 28.623489 -73.623962
v -53.137764 14.731201 -28.087395
v -12.280144 30.609268 -122.098183
v -25.545853 -36.480438 -73.157120
v -52.388016 -14.859781 -38.609177
v -19.626068 -34.007290 47.104481
v -23.044170 -54.714798 15.187035
v 7.596033 -52.766285 32.949867
v 4.779818 -60.616993 -20.360861
v 36.002827 -54.969353 15.231153
v 7.799809 -29.800295 58.225689
v 37.927711 -35.148182 46.633629
v 67.488548 121.356361 -111.819778
v 73.164551 24.477718 -41.398567
v 62.061359 2.119788 -55.653015
v 41.756344 40.085888 -76.770981
v 40.667225 -0.516315 -76.257881
v 111.206573 -13.488113 -52.092972
v 38.797295 -28.372110 -62.406799
v 65.419189 2.859144 6.224831
v 37.463318 65.396042 -51.285229
v 11.010365 60.929737 -49.904411
v 9.977497 77.963257 -30.350130
v 37.598579 -8.452956 46.924591
vt 0.316949 0.307246
vt 0.316949 0.307246
vt 0.316949 0.307246
vt 0.316949 0.307246
vt 0.316949 0.307246
vt 0.316949 0.307246
vt 0.316949 0.307246
vt 0.316949 0.307246
vt 0.316949 0.307246
vt 0.316949 0.307246
vt 0.316949 0.307246
vt 0.316949 0.307246
vt 0.316949 0.307246
vt 0.316949 0.307246
vt 0.316949 0.307246
vt 0.316949 0.307246
vt 0.316949 0.307246
vt 0.316949 0.307246
vt 0.316949 0.307246
vt 0.316949 0.307246
vt 0.316949 0.307246
vt 0.316949 0.307246
vt 0.316949 0.307246
vt 0.316949 0.307246
vt 0.316949 0.307246
vt 0.316949 0.307246
vt 0.316949 0.307246
vt 0.316949 0.307246
vt 0.316949 0.307246
vt 0.316949 0.307246
vt 0.316949 0.307246
vt 0.316949 0.307246
vt 0.316949 0.307246
vt 0.316949 0.307246
vt 0.316949 0.307246
vt 0.316949 0.307246
vt 0.316949 0.307246
vt 0.316949 0.307246
vt 0.316949 0.307246
vt 0.316949 0.307246
vt 0.316949 0.307246
vt 0.316949 0.307246
vt 0.316949 0.307246
vt 0.316949 0.307246
vt 0.316949 0.307246
vt 0.316949 0.307246
vt 0.316949 0.307246
vt 0.316949 0.307246
vt 0.316949 0.307246
vt 0.316949 0.307246
vt 0.316949 0.307246
vt 0.316949 0.307246
vt 0.316949 0.307246
vt 0.316949 0.307246
vt 0.316949 0.307246
vn 0.613519 -0.359197 -0.703258
vn 0.613519 -0.359197 -0.703258
vn 0.613519 -0.359197 -0.703258
vn 0.613519 -0.359197 -0.703258
vn -0.993453 0.101149 -0.053110
vn -0.993453 0.101149 -0.053110
vn -0.993453 0.101149 -0.053110
vn -0.961979 0.163813 -0.218545
vn -0.961979 0.163813 -0.218545
vn -0.961979 0.163813 -0.218545
vn -0.757011 -0.465396 -0.458628
vn -0.757011 -0.465396 -0.458628
vn -0.757012 -0.465396 -0.458628
vn 0.019994 0.662497 0.748797
vn 0.019994 0.662497 0.748797
vn 0.019994 0.662497 0.748797
vn 0.695200 -0.027725 -0.718282
vn 0.695200 -0.027725 -0.718282
vn 0.695200 -0.027725 -0.718282
vn 0.113187 0.131770 -0.984797
vn 0.113187 0.131770 -0.984797
vn 0.113187 0.131770 -0.984797
vn -0.265126 -0.795677 0.544615
vn -0.265126 -0.795677 0.544615
vn -0.265126 -0.795677 0.544615
vn -0.820166 0.303752 0.484833
vn -0.820166 0.303752 0.484833
vn -0.820166 0.303752 0.484833
vn 0.209375 0.730998 0.649464
vn 0.209375 0.730998 0.649464
vn 0.209375 0.730998 0.649464
vn 0.013697 -0.989341 0.144970
vn 0.013697 -0.989341 0.144970
vn 0.013697 -0.989341 0.144970
vn 0.126049 -0.734718 0.666559
vn 0.126049 -0.734718 0.666559
vn 0.126049 -0.734718 0.666559
vn 0.703861 0.596725 0.385356
vn 0.703861 0.596725 0.385357
vn 0.703861 0.596725 0.385357
vn 0.206189 0.451185 -0.868285
vn 0.206189 0.451185 -0.868285
vn 0.206189 0.451185 -0.868285
vn 0.668429 -0.366649 -0.647125
vn 0.668429 -0.366649 -0.647125
vn 0.668429 -0.366649 -0.647125
vn -0.844393 -0.196580 -0.498354
vn -0.844393 -0.196580 -0.498354
vn -0.844393 -0.196580 -0.498354
vn -0.966096 0.064421 -0.250017
vn -0.966096 0.064421 -0.250017
vn -0.966096 0.064421 -0.250017
vn -0.687903 0.596256 0.413847
vn -0.687903 0.596256 0.413846
vn -0.687903 0.596256 0.413846
vn -0.157552 -0.730239 0.664776
vn -0.157552 -0.730239 0.664777
vn -0.157552 -0.730239 0.664776
vn -0.935158 0.159743 -0.316168
vn -0.935158 0.159743 -0.316168
vn -0.935158 0.159743 -0.316168
vn -0.829713 -0.193406 -0.523612
vn -0.829713 -0.193406 -0.523612
vn -0.829713 -0.193406 -0.523612
vn -0.022218 -0.988916 0.146805
vn -0.022218 -0.988916 0.146805
vn -0.022218 -0.988916 0.146805
vn 0.251335 -0.825369 0.505565
vn 0.251335 -0.825369 0.505565
vn 0.251335 -0.825369 0.505565
vn -0.381201 0.581292 0.718877
vn -0.381201 0.581292 0.718877
vn -0.381201 0.581292 0.718877
vn -0.381201 0.581292 0.718877
vn 0.370165 0.059813 0.927038
vn 0.370165 0.059813 0.927038
vn 0.370165 0.059813 0.927038
vn 0.305969 0.854905 0.418951
vn 0.305969 0.854905 0.418951
vn 0.305969 0.854905 0.418951
vn 0.305969 0.854905 0.418951
vn 0.803291 0.394421 0.446270
vn 0.803291 0.394421 0.446270
vn 0.803291 0.394421 0.446270
vn 0.803291 0.394421 0.446270
vn -0.658018 0.170985 0.733332
vn -0.658019 0.170985 0.733332
vn -0.658019 0.170985 0.733332
vn -0.220950 0.853004 0.472827
vn -0.220950 0.853004 0.472827
vn -0.220950 0.853004 0.472827
vn -0.220950 0.853004 0.472827
vn -0.910363 -0.131748 -0.392277
vn -0.910363 -0.131748 -0.392277
vn -0.910363 -0.131748 -0.392277
vn -0.910363 -0.131748 -0.392277
vn 0.965891 0.248527 -0.072727
vn 0.965891 0.248527 -0.072727
vn 0.965891 0.248527 -0.072727
vn 0.086811 -0.548396 -0.831700
vn 0.086811 -0.548396 -0.831700
vn 0.086811 -0.548396 -0.831700
vn 0.086811 -0.548396 -0.831700
vn -0.515032 0.574819 -0.635865
vn -0.515032 0.574819 -0.635865
vn -0.515032 0.574819 -0.635865
vn -0.515032 0.574819 -0.635865
vn -0.567105 -0.180119 -0.803709
vn -0.567105 -0.180119 -0.803709
vn -0.567106 -0.180119 -0.803709
vn -0.567105 -0.180119 -0.803709
vn -0.626629 -0.284028 0.725716
vn -0.626629 -0.284028 0.725716
vn -0.626629 -0.284028 0.725716
vn -0.626629 -0.284028 0.725716
vn 0.457453 -0.864571 -0.207975
vn 0.457453 -0.864571 -0.207975
vn 0.457453 -0.864571 -0.207975
vn 0.457453 -0.864571 -0.207975
vn 0.363600 -0.014452 0.931443
vn 0.363600 -0.014452 0.931443
vn 0.363600 -0.014452 0.931443
vn 0.363600 -0.014452 0.931443
vn -0.757999 -0.056068 0.649841
vn -0.757999 -0.056068 0.649841
vn -0.757999 -0.056068 0.649841
vn -0.328430 -0.943183 -0.050396
vn -0.328430 -0.943183 -0.050396
vn -0.328430 -0.943183 -0.050396
vn -0.328430 -0.943183 -0.050396
vn 0.907411 -0.347963 0.235641
vn 0.907411 -0.347963 0.235641
vn 0.907411 -0.347963 0.235641
vn 0.907411 -0.347963 0.235641
vn 0.809474 0.149731 -0.567744
vn 0.809474 0.149731 -0.567744
vn 0.809474 0.149731 -0.567744
vn 0.809474 0.149731 -0.567744
vn 0.364783 -0.894055 -0.259997
vn 0.364783 -0.894055 -0.259997
vn 0.364783 -0.894055 -0.259997
vn 0.364783 -0.894055 -0.259997
vn 0.742429 0.444877 0.500883
vn 0.742429 0.444877 0.500883
vn 0.742429 0.444877 0.500883
vn 0.708948 -0.389361 0.588040
vn 0.708948 -0.389361 0.588040
vn 0.708948 -0.389361 0.588039
vn 0.708948 -0.389361 0.588040
vn 0.518677 -0.556045 -0.649453
vn 0.518677 -0.556045 -0.649453
vn 0.518677 -0.556045 -0.649453
vn 0.518677 -0.556045 -0.649453
vn -0.655053 0.688397 0.311472
vn -0.655053 0.688397 0.311472
vn -0.655053 0.688397 0.311472
vn 0.609066 0.788525 0.085253
vn 0.609066 0.788525 0.085253
vn 0.609066 0.788525 0.085253
vn 0.609066 0.788525 0.085253
vn 0.246975 -0.171705 -0.953688
vn 0.246975 -0.171705 -0.953688
vn 0.246975 -0.171705 -0.953688
vn -0.159083 0.740257 -0.653232
vn -0.159083 0.740257 -0.653232
vn -0.159083 0.740257 -0.653232
vn 0.617566 0.675279 0.403250
vn 0.617566 0.675279 0.403250
vn 0.617566 0.675279 0.403250
vn 0.861759 0.404204 -0.306579
vn 0.861759 0.404204 -0.306579
vn 0.861759 0.404204 -0.306579
vn -0.286711 -0.414327 0.863788
vn -0.286711 -0.414327 0.863788
vn -0.286711 -0.414327 0.863788
vn 0.041697 0.430559 0.901599
vn 0.041697 0.430559 0.901599
vn 0.041697 0.430559 0.901599
vn 0.790106 0.003061 0.612963
vn 0.790106 0.003061 0.612963
vn 0.790106 0.003061 0.612963
vn 0.743201 0.180373 0.644296
vn 0.743201 0.180373 0.644296
vn 0.743201 0.180373 0.644296
vn 0.846390 0.344690 0.405972
vn 0.846390 0.344690 0.405972
vn 0.846390 0.344690 0.405972
vn 0.437459 0.898559 0.034942
vn 0.437459 0.898559 0.034942
vn 0.437459 0.898559 0.034942
vn 0.853768 0.407638 0.323901
vn 0.853768 0.407638 0.323901
vn 0.853768 0.407638 0.323901
vn 0.060528 -0.687974 -0.723207
vn 0.060528 -0.687974 -0.723207
vn 0.060528 -0.687974 -0.723207
s off
f 30/48/1 31/22/2 32/2/3 33/45/4
f 16/29/5 17/30/6 18/6/7
f 18/6/8 19/31/9 16/29/10
f 17/30/11 20/32/12 18/12/13
f 12/26/14 13/15/15 14/25/16
f 32/2/17 34/44/18 33/45/19
f 35/46/20 36/47/21 32/10/22
f 23/36/23 24/37/24 25/9/25
f 3/5/26 11/24/27 4/7/28
f 13/16/29 15/27/30 14/28/31
f 25/9/32 26/38/33 27/39/34
f 29/40/35 28/41/36 25/1/37
f 37/49/38 35/50/39 31/22/40
f 32/2/41 31/22/42 35/50/43
f 32/2/44 36/51/45 34/44/46
f 18/12/47 20/32/48 21/33/49
f 22/34/50 19/31/51 18/6/52
f 4/7/53 11/24/54 6/17/55
f 23/42/56 25/1/57 28/41/58
f 38/52/59 30/48/60 33/45/61
f 22/34/62 18/6/63 21/35/64
f 25/9/65 24/37/66 26/38/67
f 25/1/68 27/43/69 29/40/70
f 3/14/71 4/13/72 12/26/73 14/25/74
f 9/21/75 41/55/76 13/15/77
f 7/18/78 40/54/79 14/28/80 15/27/81
f 1/3/82 7/18/83 15/27/84 13/15/85
f 4/13/86 9/21/87 12/26/88
f 16/29/89 39/53/90 2/4/91 17/30/92
f 11/24/93 3/5/94 16/29/95 19/31/96
f 2/4/97 10/23/98 17/30/99
f 10/23/100 5/11/101 21/33/102 20/32/103
f 6/17/104 11/24/105 19/31/106 22/34/107
f 5/8/108 6/17/109 22/34/110 21/35/111
f 4/7/112 6/17/113 24/37/114 23/36/115
f 5/8/116 8/20/117 27/39/118 26/38/119
f 29/40/120 41/55/121 9/21/122 28/41/123
f 23/42/124 9/21/125 4/13/126
f 6/17/127 5/8/128 26/38/129 24/37/130
f 8/19/131 1/3/132 29/40/133 27/43/134
f 10/23/135 2/4/136 33/45/137 34/44/138
f 8/20/139 5/8/140 36/47/141 35/46/142
f 37/49/143 7/18/144 1/3/145
f 1/3/146 8/19/147 35/50/148 37/49/149
f 5/11/150 10/23/151 34/44/152 36/51/153
f 38/52/154 7/18/155 30/48/156
f 2/4/157 39/53/158 38/52/159 33/45/160
f 3/5/161 39/53/162 16/29/163
f 38/52/164 39/53/165 40/54/166
f 14/28/167 40/54/168 3/5/169
f 40/54/170 39/53/171 3/5/172
f 9/21/173 23/42/174 28/41/175
f 12/26/176 9/21/177 13/15/178
f 1/3/179 41/55/180 29/40/181
f 13/15/182 41/55/183 1/3/184
f 30/48/185 7/18/186 31/22/187
f 38/52/188 40/54/189 7/18/190
f 31/22/191 7/18/192 37/49/193
f 17/30/194 10/23/195 20/32/196
