# This file uses centimeters as units for non-parametric coordinates.

v -5.401555 13.945356 2.382221
v -4.340456 5.439314 -5.885907
v -2.721742 0.892396 4.394011
v -4.333006 -4.937971 -0.034422
v -4.457120 17.902182 -2.377254
v 1.099838 17.458565 -3.345113
v 0.153544 -3.573544 -5.607786
v 2.184539 1.656618 4.681623
v 2.278467 15.712691 2.434670
v 4.860185 -4.496941 1.122730
v 5.963954 2.930948 -0.328766
v 1.975474 4.964620 -6.124821
v 3.989727 9.827682 -3.725368
vt 0.357959 0.491909
vt 0.357863 0.491736
vt 0.357959 0.491909
vt 0.357959 0.491909
vt 0.357959 0.491909
vt 0.358053 0.491181
vt 0.357929 0.491510
vt 0.357959 0.491909
vt 0.357746 0.491271
vt 0.357959 0.491909
vt 0.358119 0.491394
vt 0.358050 0.491390
vt 0.358108 0.491227
vn -0.985643 0.037143 -0.164705
vn -0.985643 0.037143 -0.164705
vn -0.985643 0.037143 -0.164705
vn -0.079715 0.240574 -0.967352
vn -0.079715 0.240574 -0.967352
vn -0.079715 0.240574 -0.967352
vn -0.079715 0.240574 -0.967352
vn -0.056771 0.149656 0.987107
vn -0.056771 0.149656 0.987107
vn -0.056771 0.149656 0.987107
vn -0.056771 0.149656 0.987107
vn -0.879328 -0.109083 0.463555
vn -0.879328 -0.109083 0.463555
vn -0.879328 -0.109083 0.463555
vn 0.049199 -0.612709 0.788776
vn 0.049199 -0.612709 0.788776
vn 0.049199 -0.612708 0.788776
vn -0.681869 -0.359650 -0.636951
vn -0.681869 -0.359650 -0.636951
vn -0.681869 -0.359650 -0.636951
vn -0.995698 -0.046053 -0.080405
vn -0.995698 -0.046053 -0.080405
vn -0.995698 -0.046053 -0.080405
vn 0.122363 0.956718 0.264040
vn 0.122364 0.956719 0.264040
vn 0.122364 0.956719 0.264040
vn -0.182160 0.773569 0.606966
vn -0.182160 0.773569 0.606966
vn -0.182160 0.773569 0.606966
vn -0.081416 -0.525277 0.847028
vn -0.081416 -0.525277 0.847027
vn -0.081416 -0.525277 0.847028
vn -0.041618 -0.051542 -0.997803
vn -0.041618 -0.051542 -0.997803
vn -0.041618 -0.051542 -0.997803
vn 0.070144 -0.980500 -0.183572
vn 0.070144 -0.980500 -0.183572
vn 0.070144 -0.980500 -0.183572
vn 0.782591 -0.229383 -0.578735
vn 0.782591 -0.229383 -0.578735
vn 0.782591 -0.229383 -0.578735
vn 0.798466 -0.001005 0.602040
vn 0.798466 -0.001005 0.602040
vn 0.798466 -0.001005 0.602040
vn 0.783367 0.093007 0.614561
vn 0.783367 0.093007 0.614561
vn 0.783367 0.093007 0.614561
vn 0.772519 -0.201314 -0.602235
vn 0.772519 -0.201314 -0.602235
vn 0.772519 -0.201314 -0.602235
vn 0.814107 -0.051815 -0.578398
vn 0.814108 -0.051815 -0.578398
vn 0.814107 -0.051815 -0.578398
vn 0.949797 0.311086 -0.033344
vn 0.949797 0.311086 -0.033344
vn 0.949797 0.311086 -0.033344
vn 0.949797 0.311086 -0.033344
vn 0.475968 0.222650 -0.850812
vn 0.475968 0.222650 -0.850812
vn 0.475968 0.222650 -0.850812
s off
f 2/1/1 1/2/2 5/7/3
f 2/1/4 5/7/5 6/6/6 12/11/7
f 1/2/8 3/3/9 8/4/10 9/9/11
f 3/3/12 1/2/13 4/5/14
f 8/4/15 3/3/16 4/5/17
f 7/8/18 4/5/19 2/1/20
f 2/1/21 4/5/22 1/2/23
f 6/6/24 5/7/25 9/9/26
f 9/9/27 5/7/28 1/2/29
f 4/5/30 10/10/31 8/4/32
f 2/1/33 12/11/34 7/8/35
f 10/10/36 4/5/37 7/8/38
f 11/12/39 10/10/40 7/8/41
f 11/12/42 8/4/43 10/10/44
f 11/12/45 9/9/46 8/4/47
f 7/8/48 12/11/49 11/12/50
f 13/13/51 11/12/52 12/11/53
f 11/12/54 13/13/55 6/6/56 9/9/57
f 13/13/58 12/11/59 6/6/60
