# This file uses centimeters as units for non-parametric coordinates.

v -4.159428 -9.734832 -258.564972
v 8.318856 -8.318856 -259.184448
v -1.769969 10.531318 -258.564972
v 5.976946 8.318856 -258.331421
v -8.679193 1.818529 -269.315582
v 6.110438 7.079878 -267.412567
v -1.769969 -7.699367 -270.423767
v -9.353786 1.847525 -261.122559
v 11.150806 0.000000 -267.503326
v 9.469151 -0.022919 -251.950012
v -6.137451 -0.022919 -251.926697
v -0.238751 8.747345 -270.407562
v 0.000000 0.000000 -275.468170
vt 0.406250 0.000000
vt 0.437500 0.937500
vt 0.687500 0.000000
vt 0.625000 0.937500
vt 0.468750 0.312500
vt 0.666667 0.291667
vt 0.375000 0.562500
vt 0.125000 0.187500
vt 0.625000 0.500000
vt 0.875000 0.250000
vt 0.468750 0.750000
vt 0.125000 0.000000
vt 0.875000 0.000000
vt 0.437500 0.125000
vt 0.500000 0.625000
vt 0.812500 0.125000
vt 0.250000 0.187500
vt 0.625000 0.125000
vt 0.500000 0.500000
vt 0.375000 0.375000
vt 0.625000 0.625000
vn 0.048796 -0.608142 0.792327
vn 0.048796 -0.608142 0.792327
vn 0.048796 -0.608142 0.792327
vn 0.048796 -0.608142 0.792327
vn 0.046143 0.565323 0.823578
vn 0.046143 0.565323 0.823578
vn 0.046143 0.565323 0.823578
vn 0.046143 0.565323 0.823578
vn 0.287919 0.950790 -0.114458
vn 0.287919 0.950790 -0.114458
vn 0.287919 0.950790 -0.114458
vn 0.287919 0.950790 -0.114458
vn -0.684362 0.715557 -0.140093
vn -0.684362 0.715557 -0.140093
vn -0.684362 0.715557 -0.140093
vn -0.684362 0.715557 -0.140093
vn -0.457968 0.435767 -0.774837
vn -0.457968 0.435767 -0.774837
vn -0.457968 0.435767 -0.774837
vn 0.510922 0.415373 -0.752612
vn 0.510922 0.415373 -0.752612
vn 0.510922 0.415373 -0.752612
vn 0.510922 0.415373 -0.752612
vn 0.483599 -0.554750 -0.677041
vn 0.483599 -0.554750 -0.677041
vn 0.483599 -0.554750 -0.677041
vn -0.589993 -0.343194 -0.730839
vn -0.589993 -0.343194 -0.730839
vn -0.589993 -0.343194 -0.730839
vn 0.104267 -0.983505 -0.147802
vn 0.104267 -0.983505 -0.147802
vn 0.104267 -0.983505 -0.147802
vn 0.968666 -0.225357 0.104402
vn 0.968666 -0.225357 0.104402
vn 0.968666 -0.225357 0.104402
vn 0.522891 -0.685133 -0.507127
vn 0.522891 -0.685133 -0.507127
vn 0.522891 -0.685133 -0.507127
vn 0.867419 0.496014 0.039429
vn 0.867419 0.496014 0.039429
vn 0.867419 0.496014 0.039429
vn 0.867419 0.496014 0.039429
vn -0.847966 -0.498739 -0.179480
vn -0.847966 -0.498739 -0.179480
vn -0.847966 -0.498739 -0.179480
vn -0.847966 -0.498739 -0.179480
vn -0.903743 -0.351283 0.244642
vn -0.903743 -0.351283 0.244642
vn -0.903742 -0.351283 0.244642
vn -0.750419 0.545386 0.373397
vn -0.750419 0.545386 0.373397
vn -0.750419 0.545386 0.373397
s off
f 1/1/1 2/3/2 10/18/3 11/14/4
f 11/14/5 10/18/6 4/6/7 3/5/8
f 3/5/9 4/6/10 6/9/11 12/19/12
f 8/20/13 3/5/14 12/19/15 5/7/16
f 5/7/17 12/19/18 13/15/19
f 12/19/20 6/9/21 9/21/22 13/15/23
f 13/15/24 9/21/25 7/11/26
f 5/7/27 13/15/28 7/11/29
f 7/11/30 2/4/31 1/2/32
f 2/3/33 9/16/34 10/18/35
f 2/3/36 7/13/37 9/16/38
f 9/16/39 6/10/40 4/6/41 10/18/42
f 7/12/43 1/1/44 8/17/45 5/8/46
f 1/1/47 11/14/48 8/17/49
f 8/17/50 11/14/51 3/5/52
