# This file uses centimeters as units for non-parametric coordinates.

v -20.504450 -0.153946 43.393036
v 54.836735 43.505211 1.503096
v 3.349585 41.522869 -36.959778
v -24.295008 12.561192 -43.352016
v 56.394890 -38.431892 -6.269187
v 7.668621 -32.439178 -54.546562
v -1.265665 40.565067 36.582703
v 7.236028 -41.985455 37.034637
v -54.710590 1.078149 -2.045642
v 74.441360 13.683764 0.359863
v 5.607793 14.393723 -68.038864
v -47.817276 32.515068 -26.746517
v -42.522442 46.390297 -1.108651
v -26.004198 53.295753 -19.966782
v -57.516121 28.104593 -0.757723
v -43.798519 28.118567 23.613533
v -22.395519 49.274574 14.524611
v 41.660145 39.075027 -51.711098
v 63.769672 37.894180 -27.691322
v 58.432945 13.578261 -51.474827
v 32.756416 14.731201 -64.185623
v 75.409134 14.324499 -20.659645
v 66.216621 -17.727833 -27.912117
v 42.893295 -14.238057 -63.148045
v -42.435455 -34.007290 -30.673931
v -10.518013 -54.714798 -34.092033
v -28.280848 -52.766285 -3.451830
v 23.912403 -58.811947 -5.432392
v -10.754192 -59.500313 23.887527
v -53.556664 -29.800295 -3.248055
v -41.964607 -35.148182 26.879848
v 22.671392 37.154438 57.815277
v 20.311876 5.772558 64.569305
v 59.159988 2.119788 51.903587
v 60.702847 36.027260 42.844009
v 74.808907 5.259082 20.470356
v 26.766975 -27.208836 59.371403
v 65.899368 -26.471811 28.629181
v -3.107719 1.595474 54.392963
v 37.195164 53.427410 29.730473
v 31.943081 44.793800 -18.238865
v 6.320758 47.091431 -8.262251
v -43.049202 2.245760 -31.690645
v -43.335789 1.949699 29.336237
vt 0.316949 0.307246
vt 0.316949 0.307246
vt 0.316949 0.307246
vt 0.316949 0.307246
vt 0.316949 0.307246
vt 0.316949 0.307246
vt 0.316949 0.307246
vt 0.316949 0.307246
vt 0.316949 0.307246
vt 0.316949 0.307246
vt 0.316949 0.307246
vt 0.316949 0.307246
vt 0.316949 0.307246
vt 0.316949 0.307246
vt 0.316949 0.307246
vt 0.316949 0.307246
vt 0.316949 0.307246
vt 0.316949 0.307246
vt 0.316949 0.307246
vt 0.316949 0.307246
vt 0.316949 0.307246
vt 0.316949 0.307246
vt 0.316949 0.307246
vt 0.316949 0.307246
vt 0.316949 0.307246
vt 0.316949 0.307246
vt 0.316949 0.307246
vt 0.316949 0.307246
vt 0.316949 0.307246
vt 0.316949 0.307246
vt 0.316949 0.307246
vt 0.316949 0.307246
vt 0.316949 0.307246
vt 0.316949 0.307246
vt 0.316949 0.307246
vt 0.316949 0.307246
vt 0.316949 0.307246
vt 0.316949 0.307246
vt 0.316949 0.307246
vt 0.316949 0.307246
vt 0.316949 0.307246
vt 0.316949 0.307246
vt 0.316949 0.307246
vt 0.316949 0.307246
vt 0.316949 0.307246
vt 0.316949 0.307246
vt 0.316949 0.307246
vt 0.316949 0.307246
vt 0.316949 0.307246
vt 0.316949 0.307246
vt 0.316949 0.307246
vt 0.316949 0.307246
vt 0.316949 0.307246
vt 0.316949 0.307246
vt 0.316949 0.307246
vt 0.316949 0.307246
vt 0.316949 0.307246
vt 0.316949 0.307246
vn 0.342417 0.201789 0.917623
vn 0.342417 0.201789 0.917623
vn 0.342417 0.201789 0.917623
vn 0.342417 0.201789 0.917623
vn 0.672447 0.436826 -0.597493
vn 0.672447 0.436826 -0.597493
vn 0.672447 0.436826 -0.597493
vn 0.436073 0.278937 -0.855590
vn 0.436073 0.278937 -0.855590
vn 0.436073 0.278938 -0.855590
vn 0.839392 0.274577 -0.469073
vn 0.839391 0.274577 -0.469073
vn 0.839391 0.274577 -0.469073
vn -0.618286 0.737576 -0.271485
vn -0.618286 0.737576 -0.271485
vn -0.618286 0.737576 -0.271485
vn 0.889123 0.079946 0.450631
vn 0.889123 0.079946 0.450631
vn 0.889123 0.079946 0.450631
vn 0.559960 -0.439658 0.702244
vn 0.559960 -0.439658 0.702244
vn 0.559960 -0.439658 0.702244
vn -0.705971 0.586493 0.397027
vn -0.705971 0.586493 0.397027
vn -0.705971 0.586493 0.397027
vn -0.544615 -0.795677 -0.265126
vn -0.544615 -0.795677 -0.265126
vn -0.544615 -0.795677 -0.265126
vn -0.519580 0.624625 -0.582992
vn -0.519580 0.624625 -0.582992
vn -0.519580 0.624625 -0.582992
vn -0.244338 0.959896 0.137473
vn -0.244338 0.959896 0.137473
vn -0.244338 0.959896 0.137473
vn -0.491332 0.712362 0.501133
vn -0.491332 0.712362 0.501133
vn -0.491332 0.712362 0.501133
vn -0.421560 0.220975 0.879464
vn -0.421560 0.220975 0.879464
vn -0.421560 0.220975 0.879464
vn -0.119652 -0.979100 -0.164458
vn -0.119652 -0.979100 -0.164458
vn -0.119652 -0.979100 -0.164458
vn -0.666560 -0.734718 0.126049
vn -0.666560 -0.734718 0.126049
vn -0.666559 -0.734718 0.126049
vn -0.357124 -0.213218 0.909396
vn -0.357124 -0.213218 0.909396
vn -0.357124 -0.213218 0.909396
vn 0.300976 -0.090705 0.949308
vn 0.300976 -0.090705 0.949308
vn 0.300976 -0.090705 0.949308
vn 0.891901 -0.139852 0.430063
vn 0.891901 -0.139852 0.430063
vn 0.891901 -0.139852 0.430063
vn 0.868502 -0.141598 -0.475031
vn 0.868502 -0.141598 -0.475031
vn 0.868502 -0.141598 -0.475031
vn 0.444696 0.123835 -0.887079
vn 0.444696 0.123835 -0.887079
vn 0.444696 0.123835 -0.887080
vn -0.608405 -0.244309 -0.755087
vn -0.608405 -0.244309 -0.755087
vn -0.608405 -0.244309 -0.755087
vn -0.664777 -0.730239 -0.157552
vn -0.664777 -0.730239 -0.157552
vn -0.664777 -0.730239 -0.157552
vn 0.250989 0.775592 0.579191
vn 0.250989 0.775592 0.579191
vn 0.250989 0.775592 0.579191
vn -0.762469 0.621763 -0.179031
vn -0.762469 0.621763 -0.179031
vn -0.762469 0.621763 -0.179031
vn 0.804017 -0.216817 -0.553668
vn 0.804017 -0.216817 -0.553667
vn 0.804017 -0.216817 -0.553667
vn -0.115197 -0.993336 -0.003613
vn -0.115197 -0.993336 -0.003613
vn -0.115197 -0.993336 -0.003613
vn -0.593045 -0.783080 0.187306
vn -0.593045 -0.783080 0.187306
vn -0.593045 -0.783080 0.187306
vn -0.251853 0.473858 -0.843818
vn -0.251853 0.473858 -0.843818
vn -0.251854 0.473858 -0.843818
vn -0.251854 0.473858 -0.843818
vn -0.911555 -0.021774 0.410602
vn -0.911554 -0.021774 0.410602
vn -0.911554 -0.021774 0.410602
vn -0.911555 -0.021774 0.410602
vn 0.183959 0.973114 0.138596
vn 0.183959 0.973114 0.138596
vn 0.183959 0.973114 0.138596
vn 0.183959 0.973114 0.138596
vn -0.378965 0.455858 0.805344
vn -0.378965 0.455858 0.805344
vn -0.378965 0.455858 0.805344
vn -0.378965 0.455858 0.805344
vn -0.547174 0.050278 -0.835508
vn -0.547174 0.050278 -0.835508
vn -0.547174 0.050278 -0.835508
vn 0.174737 0.976702 -0.124580
vn 0.174737 0.976702 -0.124580
vn 0.174737 0.976702 -0.124580
vn 0.174737 0.976702 -0.124580
vn -0.104325 0.650229 -0.752542
vn -0.104325 0.650229 -0.752542
vn -0.104325 0.650229 -0.752542
vn -0.104325 0.650229 -0.752542
vn 0.851431 0.511186 0.117279
vn 0.851431 0.511186 0.117279
vn 0.851431 0.511186 0.117279
vn 0.851431 0.511186 0.117279
vn 0.944505 -0.318760 0.079388
vn 0.944505 -0.318760 0.079388
vn 0.944505 -0.318760 0.079388
vn 0.944505 -0.318760 0.079388
vn -0.017941 -0.191008 -0.981425
vn -0.017941 -0.191008 -0.981425
vn -0.017941 -0.191008 -0.981425
vn -0.017941 -0.191008 -0.981425
vn 0.401243 -0.804715 -0.437536
vn 0.401243 -0.804715 -0.437536
vn 0.401243 -0.804715 -0.437536
vn 0.401243 -0.804715 -0.437536
vn -0.415528 -0.207004 -0.885712
vn -0.415528 -0.207004 -0.885712
vn -0.415528 -0.207004 -0.885712
vn -0.415528 -0.207004 -0.885712
vn 0.450747 -0.755042 0.476170
vn 0.450747 -0.755042 0.476170
vn 0.450747 -0.755042 0.476170
vn 0.450747 -0.755042 0.476170
vn -0.936756 -0.053415 0.345884
vn -0.936756 -0.053415 0.345884
vn -0.936756 -0.053415 0.345884
vn -0.936756 -0.053415 0.345884
vn -0.514711 -0.032741 -0.856738
vn -0.514711 -0.032741 -0.856738
vn -0.514711 -0.032741 -0.856738
vn 0.402671 -0.744277 -0.532831
vn 0.402671 -0.744277 -0.532831
vn 0.402671 -0.744277 -0.532831
vn 0.402671 -0.744277 -0.532831
vn -0.235071 -0.338129 0.911268
vn -0.235071 -0.338129 0.911269
vn -0.235071 -0.338129 0.911269
vn -0.235071 -0.338129 0.911268
vn 0.878893 0.475809 0.033976
vn 0.878892 0.475808 0.033976
vn 0.878892 0.475808 0.033976
vn 0.878892 0.475808 0.033976
vn 0.282982 -0.916007 0.284345
vn 0.282982 -0.916007 0.284345
vn 0.282982 -0.916007 0.284345
vn 0.282982 -0.916007 0.284345
vn -0.563255 0.365342 0.741127
vn -0.563255 0.365342 0.741127
vn -0.563255 0.365342 0.741127
vn -0.563255 0.365342 0.741127
vn -0.497140 -0.420329 0.759062
vn -0.497140 -0.420329 0.759062
vn -0.497140 -0.420329 0.759062
vn -0.497140 -0.420329 0.759062
vn 0.940561 -0.305105 -0.149186
vn 0.940561 -0.305105 -0.149186
vn 0.940561 -0.305105 -0.149186
vn 0.940561 -0.305105 -0.149186
vn -0.276364 0.937955 0.209438
vn -0.276364 0.937955 0.209438
vn -0.276364 0.937955 0.209438
vn -0.276364 0.937955 0.209438
vn 0.410871 0.909520 -0.062918
vn 0.410872 0.909520 -0.062918
vn 0.410871 0.909520 -0.062918
vn 0.410871 0.909520 -0.062918
vn -0.002098 0.985613 -0.169002
vn -0.002098 0.985613 -0.169002
vn -0.002098 0.985613 -0.169002
vn 0.018485 0.983663 -0.179065
vn 0.018485 0.983663 -0.179065
vn 0.018485 0.983663 -0.179065
vn 0.256990 0.943396 -0.209667
vn 0.256990 0.943396 -0.209667
vn 0.256990 0.943396 -0.209667
vn 0.013318 0.981343 -0.191802
vn 0.013318 0.981343 -0.191802
vn 0.013318 0.981343 -0.191802
vn -0.928907 -0.023437 -0.369570
vn -0.928907 -0.023437 -0.369570
vn -0.928907 -0.023437 -0.369570
vn -0.928907 -0.023437 -0.369570
vn -0.927526 -0.082965 -0.364436
vn -0.927526 -0.082965 -0.364436
vn -0.927525 -0.082965 -0.364436
vn -0.927526 -0.082965 -0.364436
vn -0.527819 -0.075525 0.845992
vn -0.527819 -0.075525 0.845992
vn -0.527819 -0.075525 0.845992
vn -0.504292 0.175961 0.845415
vn -0.504292 0.175961 0.845415
vn -0.504293 0.175961 0.845415
s off
f 32/50/1 33/22/2 34/2/3 35/47/4
f 18/31/5 19/32/6 20/6/7
f 20/6/8 21/33/9 18/31/10
f 19/32/11 22/34/12 20/12/13
f 12/26/14 13/15/15 14/25/16
f 34/2/17 36/46/18 35/47/19
f 37/48/20 38/49/21 34/10/22
f 13/15/23 15/27/24 16/28/25
f 25/38/26 26/39/27 27/9/28
f 3/5/29 11/24/30 4/7/31
f 13/16/32 17/29/33 14/30/34
f 16/28/35 17/29/36 13/16/37
f 39/51/38 33/22/39 32/50/40
f 27/9/41 28/40/42 29/41/43
f 31/42/44 30/43/45 27/1/46
f 39/51/47 37/52/48 33/22/49
f 34/2/50 33/22/51 37/52/52
f 34/2/53 38/53/54 36/46/55
f 20/12/56 22/34/57 23/35/58
f 24/36/59 21/33/60 20/6/61
f 4/7/62 11/24/63 6/17/64
f 25/44/65 27/1/66 30/43/67
f 40/54/68 32/50/69 35/47/70
f 12/26/71 15/27/72 13/15/73
f 24/36/74 20/6/75 23/37/76
f 27/9/77 26/39/78 28/40/79
f 27/1/80 29/45/81 31/42/82
f 3/14/83 4/13/84 12/26/85 14/25/86
f 9/21/87 44/58/88 16/28/89 15/27/90
f 7/18/91 42/56/92 14/30/93 17/29/94
f 1/3/95 7/18/96 17/29/97 16/28/98
f 4/13/99 43/57/100 12/26/101
f 18/31/102 41/55/103 2/4/104 19/32/105
f 11/24/106 3/5/107 18/31/108 21/33/109
f 2/4/110 10/23/111 22/34/112 19/32/113
f 10/23/114 5/11/115 23/35/116 22/34/117
f 6/17/118 11/24/119 21/33/120 24/36/121
f 5/8/122 6/17/123 24/36/124 23/37/125
f 4/7/126 6/17/127 26/39/128 25/38/129
f 5/8/130 8/20/131 29/41/132 28/40/133
f 31/42/134 44/58/135 9/21/136 30/43/137
f 25/44/138 43/57/139 4/13/140
f 6/17/141 5/8/142 28/40/143 26/39/144
f 8/19/145 1/3/146 31/42/147 29/45/148
f 10/23/149 2/4/150 35/47/151 36/46/152
f 8/20/153 5/8/154 38/49/155 37/48/156
f 7/18/157 1/3/158 39/51/159 32/50/160
f 1/3/161 8/19/162 37/52/163 39/51/164
f 5/11/165 10/23/166 36/46/167 38/53/168
f 40/54/169 42/56/170 7/18/171 32/50/172
f 2/4/173 41/55/174 40/54/175 35/47/176
f 3/5/177 41/55/178 18/31/179
f 40/54/180 41/55/181 42/56/182
f 14/30/183 42/56/184 3/5/185
f 42/56/186 41/55/187 3/5/188
f 9/21/189 43/57/190 25/44/191 30/43/192
f 12/26/193 43/57/194 9/21/195 15/27/196
f 1/3/197 44/58/198 31/42/199
f 16/28/200 44/58/201 1/3/202
