# This file uses centimeters as units for non-parametric coordinates.

v -0.986824 42.545212 15.314286
v 9.451767 42.283253 12.518205
v -0.953960 12.932939 15.658216
v 7.153217 44.361355 5.842914
v -2.113075 -1.119112 10.675801
v -2.522518 44.347439 9.235637
v 10.006279 13.801700 8.641146
v 13.696404 9.245802 10.650764
v -10.137688 36.716469 12.145521
v 7.672890 -8.498224 5.033936
v 3.332729 54.476414 6.000700
v -0.702053 61.519299 3.800466
v -6.996090 39.913509 4.630350
v -7.934921 -8.305333 3.546730
v 14.212646 10.305967 -5.579564
v 6.075455 59.341679 -6.299500
v 9.578415 13.349983 -2.996080
v 9.093315 -8.305298 -9.195333
v 4.134834 51.099171 -11.094604
v 3.818542 17.523359 -11.489713
v -13.536282 15.183571 7.579997
v -11.815102 51.983643 -3.984025
v -6.589069 -8.305263 -8.606735
v -5.733337 50.915409 -11.459138
v 6.316227 13.937508 -13.847541
v -10.295242 14.331141 -11.967410
v -1.421867 14.767131 -17.453506
v 0.386879 61.519337 -7.249042
v -4.540047 61.519306 -2.036666
v 6.036423 10.174906 10.939815
v -3.888123 53.488060 -8.608466
v -6.049606 54.232666 -3.176646
vt 0.357919 0.491831
vt 0.357919 0.491831
vt 0.357929 0.491510
vt 0.357735 0.491365
vt 0.358065 0.491351
vt 0.357929 0.491510
vt 0.357919 0.491831
vt 0.357959 0.491909
vt 0.357959 0.491909
vt 0.357699 0.491477
vt 0.357959 0.491909
vt 0.357959 0.491909
vt 0.358119 0.491394
vt 0.358022 0.491156
vt 0.357889 0.491159
vt 0.357959 0.491909
vt 0.357713 0.491525
vt 0.357795 0.491121
vt 0.357959 0.491909
vt 0.358119 0.491394
vt 0.358108 0.491227
vt 0.357959 0.491909
vt 0.357680 0.491318
vt 0.357991 0.491167
vt 0.357713 0.491525
vt 0.358050 0.491390
vt 0.358108 0.491227
vt 0.358011 0.491160
vt 0.358053 0.491181
vt 0.357952 0.491895
vt 0.358093 0.491215
vt 0.358093 0.491215
vn 0.389787 -0.039763 0.920046
vn 0.389787 -0.039763 0.920046
vn 0.389787 -0.039763 0.920046
vn 0.389787 -0.039763 0.920046
vn 0.093093 0.959996 0.264088
vn 0.093093 0.959996 0.264088
vn 0.093093 0.959996 0.264088
vn 0.093093 0.959996 0.264088
vn -0.333210 0.010580 0.942793
vn -0.333210 0.010580 0.942793
vn -0.333210 0.010580 0.942793
vn 0.433905 -0.332669 0.837292
vn 0.433905 -0.332669 0.837292
vn 0.433905 -0.332669 0.837292
vn -0.554536 -0.237087 0.797671
vn -0.554536 -0.237087 0.797671
vn -0.554536 -0.237087 0.797671
vn 0.032040 -0.046458 0.998406
vn 0.032040 -0.046458 0.998406
vn 0.032040 -0.046458 0.998406
vn -0.549379 -0.089435 0.830773
vn -0.549379 -0.089435 0.830774
vn -0.549379 -0.089435 0.830773
vn -0.586756 0.723911 0.362865
vn -0.586756 0.723911 0.362865
vn -0.586756 0.723911 0.362865
vn 0.949429 0.060426 -0.308112
vn 0.949429 0.060426 -0.308112
vn 0.949429 0.060426 -0.308112
vn 0.089297 0.461630 0.882567
vn 0.089297 0.461630 0.882567
vn 0.089297 0.461630 0.882567
vn 0.760844 0.645533 0.066367
vn 0.760844 0.645533 0.066367
vn 0.760844 0.645533 0.066367
vn 0.241679 -0.366459 0.898498
vn 0.241679 -0.366459 0.898498
vn 0.241679 -0.366459 0.898498
vn -0.930604 0.210386 -0.299523
vn -0.930604 0.210386 -0.299523
vn -0.930604 0.210386 -0.299523
vn -0.706783 0.707409 0.005481
vn -0.706783 0.707409 0.005481
vn -0.706783 0.707409 0.005481
vn -0.806388 0.255399 0.533395
vn -0.806388 0.255399 0.533395
vn -0.806388 0.255399 0.533395
vn -0.806388 0.255399 0.533395
vn 0.946025 -0.323971 0.008929
vn 0.946025 -0.323971 0.008929
vn 0.946025 -0.323971 0.008929
vn 0.328759 0.109541 0.938040
vn 0.328759 0.109541 0.938040
vn 0.328759 0.109541 0.938040
vn 0.005774 0.301200 0.953544
vn 0.005774 0.301200 0.953544
vn 0.005774 0.301200 0.953544
vn -0.078674 -0.669249 0.738862
vn -0.078674 -0.669249 0.738862
vn -0.078674 -0.669249 0.738862
vn 0.527722 0.847805 -0.052311
vn 0.527722 0.847805 -0.052311
vn 0.527722 0.847805 -0.052311
vn 0.745224 0.546355 0.382279
vn 0.745224 0.546355 0.382279
vn 0.745224 0.546355 0.382279
vn 0.885510 0.329347 0.327724
vn 0.885510 0.329347 0.327724
vn 0.885510 0.329347 0.327724
vn 0.955446 -0.280602 0.091572
vn 0.955446 -0.280602 0.091572
vn 0.955446 -0.280602 0.091572
vn -0.967060 -0.204613 -0.151420
vn -0.967060 -0.204613 -0.151420
vn -0.967060 -0.204613 -0.151420
vn 0.995204 0.089245 -0.040055
vn 0.995204 0.089245 -0.040055
vn 0.995204 0.089245 -0.040055
vn -0.644844 0.256418 0.720018
vn -0.644844 0.256418 0.720018
vn -0.644844 0.256418 0.720018
vn -0.000513 -0.999907 -0.013608
vn -0.000513 -0.999907 -0.013608
vn -0.000513 -0.999907 -0.013608
vn 0.990373 -0.036891 -0.133419
vn 0.990373 -0.036891 -0.133419
vn 0.990373 -0.036891 -0.133419
vn -0.986555 -0.005188 -0.163349
vn -0.986555 -0.005188 -0.163348
vn -0.986555 -0.005188 -0.163348
vn 0.352237 0.935267 0.034716
vn 0.352237 0.935267 0.034716
vn 0.352237 0.935267 0.034716
vn 0.929574 -0.004419 -0.368610
vn 0.929574 -0.004419 -0.368610
vn 0.929574 -0.004419 -0.368610
vn -0.012228 -0.999924 -0.001360
vn -0.012228 -0.999924 -0.001360
vn -0.012228 -0.999924 -0.001360
vn 0.504326 0.857080 -0.105207
vn 0.504326 0.857080 -0.105207
vn 0.504326 0.857080 -0.105207
vn -0.035122 -0.350931 -0.935742
vn -0.035122 -0.350931 -0.935742
vn -0.035122 -0.350931 -0.935742
vn -0.978362 -0.176268 -0.108343
vn -0.978362 -0.176268 -0.108343
vn -0.978362 -0.176268 -0.108343
vn 0.853867 0.203339 -0.479130
vn 0.853867 0.203339 -0.479130
vn 0.853867 0.203339 -0.479130
vn 0.406122 -0.138225 -0.903304
vn 0.406122 -0.138225 -0.903304
vn 0.406122 -0.138225 -0.903304
vn -0.000003 1.000000 0.000004
vn -0.000003 1.000000 0.000004
vn -0.000003 1.000000 0.000004
vn 0.743288 0.641806 -0.188700
vn 0.743288 0.641806 -0.188700
vn 0.743288 0.641806 -0.188700
vn -0.507071 -0.207228 -0.836621
vn -0.507071 -0.207228 -0.836621
vn -0.507071 -0.207228 -0.836621
vn -0.764142 0.104130 -0.636588
vn -0.764142 0.104130 -0.636588
vn -0.764142 0.104130 -0.636588
vn 0.369461 0.676344 -0.637226
vn 0.369461 0.676344 -0.637226
vn 0.369461 0.676344 -0.637226
vn 0.033282 0.167365 -0.985333
vn 0.033282 0.167365 -0.985333
vn 0.033282 0.167365 -0.985333
vn -0.527044 0.077478 -0.846299
vn -0.527044 0.077478 -0.846299
vn -0.527044 0.077478 -0.846299
vn 0.751037 0.000695 -0.660260
vn 0.751037 0.000695 -0.660260
vn 0.751037 0.000695 -0.660260
vn 0.304762 0.424304 -0.852694
vn 0.304762 0.424304 -0.852694
vn 0.304762 0.424304 -0.852694
vn -0.210386 0.270981 -0.939312
vn -0.210386 0.270981 -0.939312
vn -0.210386 0.270981 -0.939312
vn -0.966151 0.169766 0.194245
vn -0.966151 0.169766 0.194245
vn -0.966151 0.169766 0.194245
vn 0.565665 -0.100405 0.818500
vn 0.565665 -0.100405 0.818500
vn 0.565665 -0.100405 0.818500
vn -0.593006 -0.271572 0.758018
vn -0.593006 -0.271572 0.758019
vn -0.593006 -0.271572 0.758019
vn 0.708978 -0.058477 -0.702802
vn 0.708978 -0.058477 -0.702802
vn 0.708978 -0.058477 -0.702802
vn 0.011137 0.738738 -0.673901
vn 0.011137 0.738738 -0.673901
vn 0.011137 0.738738 -0.673901
vn -0.371163 0.857022 -0.357423
vn -0.371163 0.857022 -0.357423
vn -0.371163 0.857022 -0.357423
vn -0.371163 0.857022 -0.357423
vn -0.300149 0.471835 0.829025
vn -0.300149 0.471835 0.829025
vn -0.300149 0.471835 0.829025
vn -0.759745 0.373725 -0.532088
vn -0.759745 0.373725 -0.532088
vn -0.759745 0.373725 -0.532088
vn -0.759745 0.373725 -0.532088
s off
f 2/2/1 1/3/2 3/1/3 30/30/4
f 1/3/5 2/2/6 4/4/7 6/5/8
f 1/3/9 9/6/10 3/1/11
f 30/30/12 3/1/13 5/7/14
f 5/7/15 3/1/16 21/8/17
f 8/9/18 30/30/19 5/7/20
f 9/6/21 21/8/22 3/1/23
f 1/3/24 6/5/25 9/6/26
f 4/4/27 2/2/28 7/10/29
f 7/10/30 30/30/31 8/9/32
f 15/11/33 7/10/34 8/9/35
f 8/9/36 5/7/37 10/12/38
f 21/8/39 9/6/40 13/13/41
f 9/6/42 6/5/43 13/13/44
f 13/13/45 6/5/46 12/14/47 29/29/48
f 15/11/49 8/9/50 10/12/51
f 6/5/52 4/4/53 11/15/54
f 11/15/55 12/14/56 6/5/57
f 5/7/58 14/16/59 10/12/60
f 7/10/61 15/11/62 17/17/63
f 12/14/64 11/15/65 16/18/66
f 16/18/67 11/15/68 4/4/69
f 10/12/70 18/19/71 15/11/72
f 21/8/73 26/20/74 14/16/75
f 17/17/76 4/4/77 7/10/78
f 13/13/79 22/21/80 21/8/81
f 18/19/82 10/12/83 23/22/84
f 4/4/85 20/23/86 16/18/87
f 21/8/88 22/21/89 26/20/90
f 16/18/91 28/28/92 12/14/93
f 16/18/94 20/23/95 19/24/96
f 14/16/97 23/22/98 10/12/99
f 15/11/100 25/25/101 17/17/102
f 27/26/103 18/19/104 23/22/105
f 14/16/106 26/20/107 23/22/108
f 17/17/109 20/23/110 4/4/111
f 25/25/112 18/19/113 27/26/114
f 28/28/115 29/29/116 12/14/117
f 25/25/118 20/23/119 17/17/120
f 23/22/121 26/20/122 27/26/123
f 22/21/124 24/27/125 26/20/126
f 27/26/127 20/23/128 25/25/129
f 24/27/130 19/24/131 27/26/132
f 24/27/133 27/26/134 26/20/135
f 19/24/136 20/23/137 27/26/138
f 19/24/139 28/28/140 16/18/141
f 31/31/142 28/28/143 19/24/144
f 32/32/145 13/13/146 29/29/147
f 2/2/148 30/30/149 7/10/150
f 21/8/151 14/16/152 5/7/153
f 15/11/154 18/19/155 25/25/156
f 19/24/157 24/27/158 31/31/159
f 24/27/160 22/21/161 32/32/162 31/31/163
f 22/21/164 13/13/165 32/32/166
f 31/31/167 32/32/168 29/29/169 28/28/170
