# This file uses centimeters as units for non-parametric coordinates.

v 0.000000 54.881573 0.000000
v 11.411648 40.598583 -35.121449
v 31.209034 28.363129 35.121445
v -49.087570 -24.543785 0.000004
v 4.604782 -28.363129 46.758057
v -29.876091 40.598583 -21.706244
v -16.016418 51.186428 11.636612
v 6.117730 51.186428 18.828428
v 43.046600 28.363129 -18.828430
v -23.758364 28.363129 -40.534676
v -44.535389 28.363129 8.173369
v -4.604764 28.363129 46.758057
v 43.046604 28.363129 18.828428
v 52.945290 8.565745 -11.636609
v 5.293920 8.565745 -53.949879
v -49.673473 8.565745 -21.706242
v -52.945297 -8.565745 -11.636604
v -35.993813 8.565747 40.534691
v 35.993813 -8.565745 40.534676
v 52.945290 8.565745 11.636611
v -52.945290 -8.565745 11.636615
v 5.293933 8.565745 53.949875
v 4.604767 -28.363129 -46.758057
v -43.046604 -28.363129 -18.828426
v -31.209026 -28.363131 35.121456
v 23.758364 -28.363129 40.534679
v 45.892506 -28.363129 -10.069636
v 0.000000 -54.881573 0.000000
v -6.117729 -51.186428 -18.828428
v -19.797382 -51.186428 0.000002
v -6.117721 -51.186428 18.828430
v 6.117727 51.186428 -18.828430
v -16.016420 51.186428 -11.636608
v -32.528408 44.202824 0.000005
v 36.928875 40.598583 0.000000
v 19.126976 -1.860479 -50.974396
v -43.754353 -9.326191 -31.789392
v 35.993813 -8.565745 -40.534676
v -27.428070 -8.565745 -46.758049
v -54.083355 9.326191 0.000006
v -16.712667 9.326191 51.436333
v 29.876087 -40.598583 -21.706247
v -36.928875 -40.598583 0.000003
v 16.016418 -51.186428 11.636611
vt 0.316949 0.307246
vt 0.316949 0.307246
vt 0.316949 0.307246
vt 0.316949 0.307246
vt 0.316949 0.307246
vt 0.316949 0.307246
vt 0.316949 0.307246
vt 0.316949 0.307246
vt 0.316949 0.307246
vt 0.316949 0.307246
vt 0.316949 0.307246
vt 0.316949 0.307246
vt 0.316949 0.307246
vt 0.316949 0.307246
vt 0.316949 0.307246
vt 0.316949 0.307246
vt 0.316949 0.307246
vt 0.316949 0.307246
vt 0.316949 0.307246
vt 0.316949 0.307246
vt 0.316949 0.307246
vt 0.316949 0.307246
vt 0.316949 0.307246
vt 0.316949 0.307246
vt 0.316949 0.307246
vt 0.316949 0.307246
vt 0.316949 0.307246
vt 0.316949 0.307246
vt 0.316949 0.307246
vt 0.316949 0.307246
vt 0.316949 0.307246
vt 0.316949 0.307246
vt 0.316949 0.307246
vt 0.316949 0.307246
vt 0.316949 0.307246
vt 0.316949 0.307246
vt 0.316949 0.307246
vt 0.316949 0.307246
vt 0.316949 0.307246
vt 0.316949 0.307246
vt 0.316949 0.307246
vt 0.316949 0.307246
vt 0.316949 0.307246
vt 0.316949 0.307246
vt 0.316949 0.307246
vt 0.316949 0.307246
vt 0.316949 0.307246
vt 0.316949 0.307246
vt 0.316949 0.307246
vt 0.316949 0.307246
vt 0.316949 0.307246
vt 0.316949 0.307246
vt 0.316949 0.307246
vt 0.316949 0.307246
vt 0.316949 0.307246
vt 0.316949 0.307246
vt 0.316949 0.307246
vt 0.316949 0.307246
vt 0.316949 0.307246
vt 0.316949 0.307246
vt 0.316949 0.307246
vt 0.316949 0.307246
vt 0.316949 0.307246
vt 0.316949 0.307246
vt 0.316949 0.307246
vt 0.316949 0.307246
vt 0.316949 0.307246
vt 0.316949 0.307246
vn 0.359950 0.930656 -0.065690
vn 0.359950 0.930656 -0.065690
vn 0.359950 0.930656 -0.065690
vn 0.894427 0.447214 -0.000000
vn 0.894427 0.447214 -0.000000
vn 0.894427 0.447214 -0.000000
vn 0.491124 0.794655 -0.356822
vn 0.491123 0.794654 -0.356822
vn 0.491124 0.794655 -0.356822
vn 0.491124 0.794654 -0.356822
vn 0.491124 0.794654 -0.356822
vn 0.491123 0.794655 -0.356822
vn -0.069468 0.974404 -0.213802
vn -0.069468 0.974404 -0.213802
vn -0.069468 0.974404 -0.213802
vn -0.187593 0.794655 -0.577350
vn -0.187593 0.794655 -0.577350
vn -0.187593 0.794655 -0.577350
vn -0.187593 0.794655 -0.577350
vn -0.187593 0.794655 -0.577350
vn -0.187593 0.794655 -0.577350
vn -0.187593 0.794654 -0.577350
vn -0.187593 0.794654 -0.577350
vn -0.187593 0.794654 -0.577350
vn -0.723607 0.447214 -0.525731
vn -0.723607 0.447214 -0.525731
vn -0.723607 0.447214 -0.525731
vn -0.224804 0.974404 0.000000
vn -0.224805 0.974404 0.000000
vn -0.224805 0.974404 0.000000
vn -0.498310 0.843394 -0.200932
vn -0.498310 0.843394 -0.200932
vn -0.498310 0.843394 -0.200932
vn -0.389534 0.921012 0.000000
vn -0.389534 0.921012 0.000000
vn -0.389534 0.921012 0.000000
vn -0.833800 0.515317 -0.198055
vn -0.833800 0.515317 -0.198055
vn -0.833800 0.515317 -0.198055
vn -0.827047 0.529420 -0.188966
vn -0.827047 0.529420 -0.188966
vn -0.827047 0.529420 -0.188966
vn -0.593751 0.675605 0.437056
vn -0.593751 0.675605 0.437056
vn -0.593751 0.675605 0.437056
vn -0.567008 0.627544 0.533565
vn -0.567008 0.627544 0.533565
vn -0.567008 0.627544 0.533565
vn -0.069468 0.974404 0.213802
vn -0.069468 0.974404 0.213802
vn -0.069468 0.974404 0.213802
vn -0.514096 0.633240 0.578544
vn -0.514096 0.633240 0.578544
vn -0.514096 0.633240 0.578544
vn -0.187592 0.794655 0.577350
vn -0.187592 0.794655 0.577350
vn -0.187592 0.794655 0.577350
vn 0.216479 0.713613 0.666253
vn 0.216479 0.713613 0.666253
vn 0.216479 0.713613 0.666253
vn 0.359950 0.930656 0.065690
vn 0.359950 0.930656 0.065690
vn 0.359950 0.930656 0.065690
vn 0.491123 0.794654 0.356822
vn 0.491123 0.794654 0.356822
vn 0.491123 0.794654 0.356822
vn 0.491123 0.794655 0.356822
vn 0.491123 0.794655 0.356822
vn 0.491123 0.794655 0.356822
vn 0.894427 0.447213 0.000000
vn 0.894427 0.447213 0.000000
vn 0.894427 0.447213 0.000000
vn 0.982247 -0.187592 0.000000
vn 0.982247 -0.187592 0.000000
vn 0.982247 -0.187592 0.000000
vn 0.847552 -0.379769 0.370716
vn 0.847552 -0.379769 0.370716
vn 0.847552 -0.379769 0.370716
vn 0.891733 -0.187778 -0.411767
vn 0.891733 -0.187778 -0.411767
vn 0.891733 -0.187778 -0.411767
vn 0.460708 0.382711 -0.800800
vn 0.460708 0.382711 -0.800800
vn 0.460708 0.382711 -0.800800
vn 0.389054 -0.348827 -0.852618
vn 0.389054 -0.348827 -0.852618
vn 0.389054 -0.348827 -0.852617
vn 0.065965 -0.191926 -0.979190
vn 0.065965 -0.191926 -0.979190
vn 0.065965 -0.191926 -0.979190
vn -0.116053 -0.187778 -0.975331
vn -0.116053 -0.187778 -0.975331
vn -0.116053 -0.187778 -0.975331
vn -0.908681 -0.068525 -0.411830
vn -0.908681 -0.068525 -0.411830
vn -0.908681 -0.068525 -0.411830
vn -0.583888 -0.471605 -0.660805
vn -0.583888 -0.471605 -0.660805
vn -0.583888 -0.471605 -0.660805
vn -0.873240 -0.296004 -0.387083
vn -0.873240 -0.296004 -0.387083
vn -0.873240 -0.296004 -0.387083
vn -0.902601 -0.373632 -0.213802
vn -0.902601 -0.373632 -0.213802
vn -0.902601 -0.373632 -0.213802
vn -0.794654 -0.187593 0.577350
vn -0.794654 -0.187593 0.577350
vn -0.794654 -0.187593 0.577350
vn -0.477812 -0.187705 0.858174
vn -0.477812 -0.187705 0.858174
vn -0.477812 -0.187705 0.858174
vn -0.810600 -0.459810 0.362632
vn -0.810600 -0.459810 0.362632
vn -0.810600 -0.459810 0.362632
vn -0.296563 -0.281033 0.912727
vn -0.296563 -0.281033 0.912727
vn -0.296563 -0.281033 0.912727
vn 0.479396 0.187778 0.857274
vn 0.479396 0.187778 0.857274
vn 0.479396 0.187778 0.857274
vn 0.303532 -0.187592 0.934172
vn 0.303532 -0.187592 0.934172
vn 0.303532 -0.187592 0.934172
vn 0.303531 -0.187592 0.934172
vn 0.303531 -0.187592 0.934172
vn 0.303531 -0.187592 0.934172
vn 0.535354 0.379091 -0.754775
vn 0.535354 0.379091 -0.754775
vn 0.535354 0.379091 -0.754775
vn 0.587654 0.323648 -0.741563
vn 0.587654 0.323648 -0.741563
vn 0.587654 0.323648 -0.741563
vn 0.794655 0.187593 -0.577350
vn 0.794655 0.187593 -0.577350
vn 0.794655 0.187593 -0.577350
vn 0.894427 0.447213 -0.000000
vn 0.894427 0.447213 -0.000000
vn 0.894427 0.447213 -0.000000
vn -0.666634 0.186209 -0.721752
vn -0.666634 0.186209 -0.721752
vn -0.666634 0.186209 -0.721752
vn -0.668520 0.187704 -0.719617
vn -0.668520 0.187704 -0.719617
vn -0.668520 0.187704 -0.719617
vn -0.303531 0.187592 -0.934172
vn -0.303531 0.187592 -0.934172
vn -0.303531 0.187592 -0.934172
vn -0.046439 0.512762 -0.857274
vn -0.046439 0.512762 -0.857274
vn -0.046439 0.512762 -0.857274
vn -0.972069 -0.234696 0.000000
vn -0.972069 -0.234696 0.000000
vn -0.972069 -0.234696 0.000000
vn -0.997983 -0.063479 0.000000
vn -0.997983 -0.063479 0.000000
vn -0.997983 -0.063479 0.000000
vn -0.977206 0.068526 -0.200932
vn -0.977206 0.068526 -0.200932
vn -0.977206 0.068526 -0.200932
vn -0.892728 0.239119 0.381914
vn -0.892728 0.239119 0.381914
vn -0.892728 0.239119 0.381914
vn -0.860470 0.238195 0.450393
vn -0.860470 0.238195 0.450393
vn -0.860470 0.238195 0.450393
vn -0.842885 0.503848 -0.188894
vn -0.842885 0.503848 -0.188894
vn -0.842885 0.503848 -0.188894
vn -0.117863 -0.187705 0.975128
vn -0.117863 -0.187705 0.975128
vn -0.117863 -0.187705 0.975128
vn 0.276393 0.447214 0.850651
vn 0.276393 0.447214 0.850651
vn 0.276393 0.447214 0.850651
vn -0.098291 0.296004 0.950116
vn -0.098291 0.296004 0.950116
vn -0.098291 0.296004 0.950116
vn -0.448031 0.471605 0.759511
vn -0.448031 0.471605 0.759511
vn -0.448031 0.471605 0.759511
vn 0.836108 -0.516743 0.184119
vn 0.836108 -0.516743 0.184119
vn 0.836108 -0.516743 0.184119
vn 0.794655 0.187592 0.577350
vn 0.794655 0.187592 0.577350
vn 0.794655 0.187592 0.577350
vn 0.794655 0.187592 0.577350
vn 0.794654 0.187592 0.577350
vn 0.794655 0.187592 0.577350
vn 0.252594 -0.930656 -0.264717
vn 0.252594 -0.930656 -0.264717
vn 0.252594 -0.930656 -0.264717
vn -0.391364 -0.633240 -0.667714
vn -0.391364 -0.633240 -0.667714
vn -0.391364 -0.633239 -0.667714
vn 0.187593 -0.794655 -0.577350
vn 0.187593 -0.794655 -0.577350
vn 0.187593 -0.794655 -0.577350
vn 0.466323 -0.512762 -0.720845
vn 0.466323 -0.512762 -0.720845
vn 0.466323 -0.512762 -0.720845
vn -0.181871 -0.974404 -0.132137
vn -0.181871 -0.974404 -0.132137
vn -0.181871 -0.974404 -0.132137
vn -0.491123 -0.794655 -0.356822
vn -0.491123 -0.794655 -0.356822
vn -0.491123 -0.794655 -0.356822
vn -0.491123 -0.794655 -0.356822
vn -0.790199 -0.598436 -0.132137
vn -0.790199 -0.598436 -0.132137
vn -0.790199 -0.598436 -0.132137
vn -0.391364 -0.633239 -0.667714
vn -0.391364 -0.633239 -0.667714
vn -0.391364 -0.633239 -0.667714
vn -0.181871 -0.974404 0.132137
vn -0.181871 -0.974404 0.132137
vn -0.181871 -0.974404 0.132137
vn -0.491123 -0.794654 0.356822
vn -0.491123 -0.794654 0.356823
vn -0.491123 -0.794654 0.356823
vn -0.216479 -0.713613 0.666253
vn -0.216478 -0.713613 0.666253
vn -0.216478 -0.713613 0.666253
vn -0.491123 -0.794655 0.356822
vn -0.491123 -0.794655 0.356822
vn -0.491123 -0.794655 0.356822
vn -0.754721 -0.571569 0.322034
vn -0.754721 -0.571569 0.322034
vn -0.754721 -0.571569 0.322034
vn 0.069468 -0.974404 0.213802
vn 0.069468 -0.974404 0.213802
vn 0.069468 -0.974404 0.213802
vn 0.187592 -0.794655 0.577350
vn 0.187592 -0.794654 0.577350
vn 0.187592 -0.794654 0.577350
vn 0.187593 -0.794654 0.577350
vn 0.187593 -0.794654 0.577350
vn 0.187593 -0.794654 0.577350
vn 0.329817 -0.930656 -0.158429
vn 0.329817 -0.930656 -0.158429
vn 0.329817 -0.930656 -0.158429
vn 0.723607 -0.447214 -0.525731
vn 0.723607 -0.447213 -0.525731
vn 0.723607 -0.447214 -0.525731
vn 0.607062 -0.794654 -0.000000
vn 0.607062 -0.794654 -0.000000
vn 0.607062 -0.794654 -0.000000
vn 0.709092 -0.633240 0.310154
vn 0.709092 -0.633240 0.310154
vn 0.709092 -0.633240 0.310154
s off
f 1/1/1 35/35/2 32/32/3
f 35/35/4 13/13/5 9/9/6
f 35/35/7 9/9/8 32/32/9
f 32/32/10 9/9/11 2/2/12
f 1/45/13 32/32/14 33/33/15
f 32/32/16 2/2/17 33/33/18
f 2/2/19 10/10/20 33/33/21
f 33/33/22 10/10/23 6/6/24
f 6/6/25 10/10/26 16/16/27
f 1/46/28 33/47/29 7/7/30
f 33/48/31 6/49/32 34/34/33
f 33/50/34 34/34/35 7/7/36
f 6/6/37 16/16/38 11/11/39
f 6/51/40 11/52/41 34/34/42
f 34/34/43 11/60/44 7/7/45
f 7/7/46 11/60/47 18/18/48
f 1/53/49 7/7/50 8/8/51
f 7/7/52 18/18/53 12/12/54
f 7/7/55 12/12/56 8/8/57
f 8/8/58 12/12/59 3/3/60
f 8/8/61 35/35/62 1/1/63
f 8/8/64 3/3/65 35/35/66
f 35/35/67 3/3/68 13/13/69
f 13/13/70 20/20/71 14/14/72
f 14/14/73 20/20/74 27/27/75
f 20/20/76 26/26/77 27/27/78
f 14/14/79 27/27/80 38/38/81
f 2/2/82 36/36/83 15/15/84
f 38/38/85 23/23/86 36/36/87
f 36/36/88 23/23/89 15/15/90
f 15/15/91 23/23/92 39/39/93
f 16/16/94 37/37/95 17/17/96
f 39/39/97 24/24/98 37/37/99
f 37/37/100 24/24/101 17/17/102
f 17/54/103 24/55/104 4/4/105
f 21/21/106 25/25/107 18/18/108
f 18/18/109 25/25/110 41/41/111
f 21/21/112 4/4/113 25/25/114
f 41/41/115 25/25/116 5/5/117
f 3/3/118 22/22/119 19/19/120
f 22/22/121 26/26/122 19/19/123
f 22/22/124 5/5/125 26/26/126
f 36/36/127 2/2/128 9/9/129
f 36/36/130 9/9/131 38/38/132
f 38/38/133 9/9/134 14/14/135
f 14/14/136 9/9/137 13/13/138
f 37/37/139 16/16/140 10/10/141
f 37/37/142 10/10/143 39/39/144
f 39/39/145 10/10/146 15/15/147
f 15/15/148 10/10/149 2/2/150
f 4/4/151 21/21/152 17/56/153
f 21/21/154 40/40/155 17/57/156
f 17/58/157 40/40/158 16/59/159
f 21/21/160 18/18/161 11/60/162
f 21/21/163 11/60/164 40/40/165
f 40/40/166 11/61/167 16/62/168
f 5/5/169 22/22/170 41/41/171
f 22/22/172 3/3/173 12/12/174
f 22/22/175 12/12/176 41/41/177
f 41/41/178 12/12/179 18/18/180
f 26/26/181 20/20/182 19/19/183
f 20/20/184 13/13/185 19/19/186
f 13/13/187 3/3/188 19/19/189
f 29/29/190 42/42/191 28/28/192
f 29/29/193 39/39/194 23/23/195
f 29/29/196 23/23/197 42/42/198
f 42/42/199 23/23/200 38/38/201
f 28/63/202 30/30/203 29/64/204
f 29/65/205 30/30/206 43/43/207 24/24/208
f 43/43/209 4/4/210 24/66/211
f 29/29/212 24/24/213 39/39/214
f 28/67/215 31/31/216 30/30/217
f 31/31/218 43/43/219 30/30/220
f 31/31/221 5/5/222 25/25/223
f 31/31/224 25/25/225 43/43/226
f 43/43/227 25/25/228 4/4/229
f 28/68/230 44/44/231 31/31/232
f 44/44/233 5/5/234 31/31/235
f 44/44/236 26/26/237 5/5/238
f 28/28/239 42/42/240 44/44/241
f 42/42/242 38/38/243 27/27/244
f 42/42/245 27/27/246 44/44/247
f 44/44/248 27/27/249 26/26/250
