# This file uses centimeters as units for non-parametric coordinates.

v 0.000000 20.771797 0.000000
v 2.911415 5.372683 -5.042709
v -2.911410 5.372683 -5.042710
v -5.822819 5.372683 -0.000001
v -2.911410 5.372683 5.042709
v 2.911415 5.372683 5.042710
v 5.822819 5.372683 0.000000
v 0.000000 -0.000000 0.000000
v -2.137007 2.072469 -3.701406
v 2.137011 2.072469 -3.701405
v -4.274014 2.072469 -0.000001
v -2.137007 2.072469 3.701405
v 2.137011 2.072469 3.701406
v 4.274014 2.072469 0.000000
vt 0.500000 0.312500
vt 0.500000 0.688440
vt 0.625000 0.461968
vt 0.375000 0.461968
vt 0.416667 0.461968
vt 0.458333 0.461968
vt 0.500000 0.461968
vt 0.541667 0.461968
vt 0.583333 0.461968
vt 0.416667 0.461968
vt 0.375000 0.461968
vt 0.458333 0.461968
vt 0.500000 0.461968
vt 0.541667 0.461968
vt 0.583333 0.461968
vt 0.625000 0.461968
vn 0.000000 0.311206 -0.950342
vn 0.000000 0.311206 -0.950342
vn 0.000000 0.311206 -0.950342
vn -0.823021 0.311206 -0.475171
vn -0.823021 0.311206 -0.475171
vn -0.823021 0.311206 -0.475171
vn -0.823021 0.311206 0.475171
vn -0.823021 0.311206 0.475171
vn -0.823021 0.311206 0.475171
vn -0.000000 0.311206 0.950342
vn -0.000000 0.311206 0.950342
vn -0.000000 0.311206 0.950342
vn 0.823021 0.311206 0.475170
vn 0.823021 0.311206 0.475170
vn 0.823021 0.311206 0.475170
vn 0.823021 0.311206 -0.475170
vn 0.823021 0.311206 -0.475170
vn 0.823021 0.311206 -0.475170
vn 0.000000 -0.872538 -0.488547
vn 0.000000 -0.872538 -0.488547
vn 0.000000 -0.872538 -0.488547
vn -0.423094 -0.872538 -0.244273
vn -0.423094 -0.872538 -0.244273
vn -0.423094 -0.872538 -0.244273
vn -0.423094 -0.872538 0.244273
vn -0.423094 -0.872538 0.244273
vn -0.423094 -0.872538 0.244273
vn -0.000000 -0.872538 0.488547
vn -0.000000 -0.872538 0.488546
vn -0.000000 -0.872538 0.488546
vn 0.423094 -0.872538 0.244273
vn 0.423094 -0.872538 0.244273
vn 0.423094 -0.872538 0.244273
vn 0.423094 -0.872538 -0.244273
vn 0.423094 -0.872538 -0.244273
vn 0.423094 -0.872538 -0.244273
vn 0.000000 -0.376520 -0.926409
vn 0.000000 -0.376520 -0.926409
vn 0.000000 -0.376520 -0.926409
vn 0.000000 -0.376520 -0.926408
vn -0.802293 -0.376520 -0.463204
vn -0.802293 -0.376520 -0.463204
vn -0.802293 -0.376520 -0.463204
vn -0.802293 -0.376520 -0.463204
vn -0.802293 -0.376520 0.463204
vn -0.802293 -0.376520 0.463204
vn -0.802293 -0.376520 0.463204
vn -0.802293 -0.376520 0.463204
vn -0.000000 -0.376520 0.926409
vn -0.000000 -0.376520 0.926409
vn -0.000000 -0.376520 0.926409
vn -0.000000 -0.376520 0.926409
vn 0.802294 -0.376520 0.463204
vn 0.802294 -0.376520 0.463203
vn 0.802294 -0.376520 0.463204
vn 0.802294 -0.376520 0.463204
vn 0.802294 -0.376520 -0.463204
vn 0.802294 -0.376520 -0.463204
vn 0.802294 -0.376520 -0.463204
vn 0.802294 -0.376520 -0.463204
s off
f 2/4/1 3/5/2 1/2/3
f 3/5/4 4/6/5 1/2/6
f 4/6/7 5/7/8 1/2/9
f 5/7/10 6/8/11 1/2/12
f 6/8/13 7/9/14 1/2/15
f 7/9/16 2/3/17 1/2/18
f 8/1/19 9/10/20 10/11/21
f 8/1/22 11/12/23 9/10/24
f 8/1/25 12/13/26 11/12/27
f 8/1/28 13/14/29 12/13/30
f 8/1/31 14/15/32 13/14/33
f 8/1/34 10/16/35 14/15/36
f 3/5/37 2/4/38 10/11/39 9/10/40
f 4/6/41 3/5/42 9/10/43 11/12/44
f 5/7/45 4/6/46 11/12/47 12/13/48
f 6/8/49 5/7/50 12/13/51 13/14/52
f 7/9/53 6/8/54 13/14/55 14/15/56
f 2/3/57 7/9/58 14/15/59 10/16/60
