# This file uses centimeters as units for non-parametric coordinates.

v -2.062330 -1.608240 3.262464
v 2.062328 -1.608240 3.262464
v -2.062330 1.608240 3.262464
v 2.062328 1.608240 3.262464
v -2.062330 1.608240 -3.262464
v 2.062328 1.608240 -3.262464
v -2.062330 -1.608240 -3.262464
v 2.062328 -1.608240 -3.262464
v 0.606303 -1.911393 3.705565
v 0.606303 -1.911393 -3.705565
v 0.606303 1.911393 -3.705565
v 0.606303 1.911393 3.705565
v -2.342432 0.414811 3.705565
v 0.747962 0.476312 4.571329
v 2.342430 0.414811 3.705565
v 2.342430 0.414810 -3.705565
v 0.747962 0.476312 -4.571329
v -2.342432 0.414810 -3.705565
v -2.342432 1.911393 -0.434121
v 2.342430 1.911393 0.898513
v -2.342432 -1.911393 0.733130
v 2.342430 -1.911393 2.065763
v 0.658523 -2.019402 1.707293
v 0.747962 2.322554 0.499207
v 2.889712 0.476312 1.672172
v -2.889717 0.476312 0.028184
vt 0.145922 0.421265
vt 0.145918 0.421073
vt 0.145752 0.421156
vt 0.145768 0.421290
vt 0.146123 0.421956
vt 0.145980 0.421592
vt 0.145789 0.421532
vt 0.145941 0.421899
vt 0.145949 0.421849
vt 0.146169 0.421928
vt 0.146018 0.420956
vt 0.146069 0.421130
vt 0.145851 0.421116
vt 0.145846 0.421030
vt 0.145737 0.421350
vt 0.146526 0.421819
vt 0.146481 0.421467
vt 0.146388 0.421627
vt 0.146445 0.421872
vt 0.146537 0.421616
vt 0.146227 0.421651
vt 0.146461 0.421211
vt 0.146258 0.421265
vt 0.146311 0.421128
vt 0.146345 0.421005
vt 0.146024 0.421642
vn 0.396041 0.459432 0.795030
vn 0.396041 0.459432 0.795030
vn 0.396041 0.459432 0.795030
vn 0.396041 0.459432 0.795030
vn 0.251744 0.963127 -0.094929
vn 0.251744 0.963127 -0.094929
vn 0.251744 0.963127 -0.094929
vn 0.251744 0.963127 -0.094929
vn 0.396042 0.459432 -0.795030
vn 0.396042 0.459432 -0.795030
vn 0.396042 0.459432 -0.795030
vn 0.396042 0.459432 -0.795030
vn 0.132268 -0.981272 0.140038
vn 0.132268 -0.981272 0.140038
vn 0.132268 -0.981272 0.140038
vn 0.132268 -0.981272 0.140038
vn 0.903767 0.377697 0.201370
vn 0.903767 0.377698 0.201370
vn 0.903767 0.377697 0.201370
vn 0.903767 0.377697 0.201370
vn -0.945324 0.296572 -0.135673
vn -0.945324 0.296572 -0.135673
vn -0.945324 0.296572 -0.135673
vn -0.945324 0.296572 -0.135673
vn -0.068044 -0.996658 -0.045203
vn -0.068044 -0.996658 -0.045203
vn -0.068044 -0.996658 -0.045203
vn -0.068044 -0.996658 -0.045203
vn -0.225229 0.443771 -0.867375
vn -0.225229 0.443771 -0.867375
vn -0.225229 0.443771 -0.867375
vn -0.225229 0.443771 -0.867375
vn -0.147027 0.983573 0.104728
vn -0.147027 0.983573 0.104728
vn -0.147027 0.983573 0.104728
vn -0.147027 0.983573 0.104728
vn -0.225229 0.443771 0.867375
vn -0.225229 0.443771 0.867375
vn -0.225229 0.443771 0.867375
vn -0.225229 0.443771 0.867375
vn -0.223818 -0.283716 0.932422
vn -0.223818 -0.283716 0.932422
vn -0.223818 -0.283716 0.932422
vn -0.223818 -0.283716 0.932422
vn 0.396352 -0.295811 0.869138
vn 0.396352 -0.295811 0.869138
vn 0.396352 -0.295811 0.869138
vn 0.396352 -0.295811 0.869138
vn 0.949390 -0.180972 0.256724
vn 0.949390 -0.180972 0.256724
vn 0.949390 -0.180972 0.256724
vn 0.949390 -0.180972 0.256724
vn 0.396352 -0.295811 -0.869138
vn 0.396352 -0.295811 -0.869138
vn 0.396352 -0.295811 -0.869138
vn 0.396352 -0.295811 -0.869138
vn -0.223818 -0.283716 -0.932422
vn -0.223818 -0.283716 -0.932422
vn -0.223818 -0.283716 -0.932422
vn -0.223818 -0.283716 -0.932422
vn -0.971222 -0.210963 -0.110560
vn -0.971222 -0.210963 -0.110560
vn -0.971222 -0.210963 -0.110560
vn -0.971222 -0.210963 -0.110560
vn 0.227641 0.963513 0.140793
vn 0.227641 0.963513 0.140793
vn 0.227641 0.963513 0.140793
vn 0.227641 0.963513 0.140793
vn 0.140308 -0.989208 -0.042207
vn 0.140308 -0.989208 -0.042207
vn 0.140308 -0.989208 -0.042207
vn 0.140308 -0.989208 -0.042207
vn 0.952980 0.288192 -0.093678
vn 0.952980 0.288192 -0.093678
vn 0.952980 0.288192 -0.093678
vn 0.952980 0.288192 -0.093678
vn -0.934061 0.335840 0.121413
vn -0.934061 0.335840 0.121413
vn -0.934061 0.335840 0.121413
vn -0.934061 0.335840 0.121413
vn -0.095557 -0.990900 0.094795
vn -0.095557 -0.990900 0.094795
vn -0.095557 -0.990900 0.094795
vn -0.095557 -0.990900 0.094795
vn -0.113834 0.988187 -0.102605
vn -0.113834 0.988187 -0.102605
vn -0.113834 0.988187 -0.102605
vn -0.113834 0.988187 -0.102605
vn 0.976851 -0.198411 -0.079972
vn 0.976851 -0.198411 -0.079972
vn 0.976851 -0.198411 -0.079972
vn 0.976851 -0.198411 -0.079972
vn -0.975059 -0.174785 0.136785
vn -0.975059 -0.174785 0.136785
vn -0.975059 -0.174785 0.136785
vn -0.975059 -0.174785 0.136785
s off
f 12/1/1 14/2/2 15/3/3 4/4/4
f 11/5/5 24/6/6 20/7/7 6/8/8
f 16/9/9 17/10/10 11/5/11 6/8/12
f 9/11/13 23/12/14 22/13/15 2/14/16
f 15/3/17 25/15/18 20/7/19 4/4/20
f 18/16/21 26/17/22 19/18/23 5/19/24
f 7/20/25 10/21/26 23/12/27 21/22/28
f 5/19/29 11/5/30 17/10/31 18/16/32
f 3/23/33 12/1/34 24/6/35 19/18/36
f 13/24/37 14/2/38 12/1/39 3/23/40
f 1/25/41 9/11/42 14/2/43 13/24/44
f 15/3/45 14/2/46 9/11/47 2/14/48
f 2/14/49 22/13/50 25/15/51 15/3/52
f 10/21/53 17/10/54 16/9/55 8/26/56
f 18/16/57 17/10/58 10/21/59 7/20/60
f 7/20/61 21/22/62 26/17/63 18/16/64
f 20/7/65 24/6/66 12/1/67 4/4/68
f 22/13/69 23/12/70 10/21/71 8/26/72
f 20/7/73 25/15/74 16/9/75 6/8/76
f 19/18/77 26/17/78 13/24/79 3/23/80
f 21/22/81 23/12/82 9/11/83 1/25/84
f 19/18/85 24/6/86 11/5/87 5/19/88
f 25/15/89 22/13/90 8/26/91 16/9/92
f 26/17/93 21/22/94 1/25/95 13/24/96
