# This file uses centimeters as units for non-parametric coordinates.

v 11.202500 6.746584 12.618206
v 10.884340 0.157735 16.394272
v 10.809016 -8.632744 15.413784
v 16.801367 5.038032 4.451012
v 15.834284 -9.860968 6.494438
v 5.286986 -10.965457 8.077103
v -1.105433 -12.768360 9.013016
v 12.321924 -9.957726 -7.899124
v 12.836600 8.107912 -3.589684
v -3.728953 9.611101 -8.134567
v 7.719902 -7.553859 -13.596237
v 5.558641 5.727013 -16.433678
v 3.054926 -4.720061 -16.841667
v -3.988656 -11.664724 -11.550499
v 0.809888 -10.090319 -9.858253
v -0.667645 7.914732 14.128216
v -0.159536 -3.248111 16.654976
v -0.003567 -10.862869 16.844456
v -5.426379 9.440609 1.738876
v -12.249219 8.574471 -10.641289
v -15.204453 6.700913 -12.896790
v -16.253124 -0.365692 -14.130226
v -16.327488 -8.201122 -15.004120
v -14.970720 -11.165443 -12.438019
v -7.994155 -13.373541 -6.906136
v -13.076098 -1.396616 -16.727257
v -13.132441 6.415483 -15.587883
vt 0.438994 0.378490
vt 0.438994 0.378490
vt 0.438994 0.378490
vt 0.438994 0.378490
vt 0.438994 0.378490
vt 0.438994 0.378490
vt 0.438994 0.378490
vt 0.438994 0.378490
vt 0.438994 0.378490
vt 0.438994 0.378490
vt 0.438994 0.378490
vt 0.438994 0.378490
vt 0.438994 0.378490
vt 0.438994 0.378490
vt 0.438994 0.378490
vt 0.438994 0.378490
vt 0.438994 0.378490
vt 0.438994 0.378490
vt 0.438994 0.378490
vt 0.438994 0.378490
vt 0.438994 0.378490
vt 0.438994 0.378490
vt 0.438994 0.378490
vt 0.438994 0.378490
vt 0.438994 0.378490
vt 0.438994 0.378490
vt 0.438994 0.378490
vn 0.040068 0.334703 0.941472
vn 0.040068 0.334703 0.941472
vn 0.040068 0.334703 0.941472
vn 0.040068 0.334703 0.941472
vn 0.089246 -0.047531 0.994875
vn 0.089246 -0.047531 0.994875
vn 0.089246 -0.047531 0.994875
vn 0.089246 -0.047531 0.994875
vn 0.218025 -0.965430 0.142862
vn 0.218025 -0.965430 0.142862
vn 0.218025 -0.965430 0.142862
vn 0.903479 -0.055154 0.425070
vn 0.903479 -0.055154 0.425070
vn 0.903478 -0.055154 0.425070
vn 0.821850 0.252883 0.510502
vn 0.821850 0.252883 0.510502
vn 0.821850 0.252883 0.510502
vn 0.097114 0.991651 0.084831
vn 0.097114 0.991651 0.084831
vn 0.097114 0.991651 0.084831
vn 0.132719 -0.969037 0.208215
vn 0.132719 -0.969037 0.208215
vn 0.132719 -0.969037 0.208215
vn 0.871809 0.010579 0.489732
vn 0.871809 0.010579 0.489732
vn 0.871809 0.010579 0.489732
vn 0.109356 0.989535 0.094138
vn 0.109356 0.989535 0.094138
vn 0.109356 0.989535 0.094138
vn 0.081815 0.996157 0.031267
vn 0.081815 0.996157 0.031267
vn 0.081815 0.996157 0.031267
vn 0.101449 -0.994677 -0.018069
vn 0.101449 -0.994677 -0.018069
vn 0.101449 -0.994677 -0.018069
vn 0.967240 -0.095067 -0.235390
vn 0.967240 -0.095067 -0.235390
vn 0.967240 -0.095067 -0.235390
vn 0.445026 0.887521 0.119412
vn 0.445026 0.887521 0.119412
vn 0.445026 0.887521 0.119412
vn 0.905349 0.073961 -0.418178
vn 0.905349 0.073961 -0.418178
vn 0.905349 0.073961 -0.418178
vn 0.020666 -0.998334 -0.053872
vn 0.020666 -0.998334 -0.053872
vn 0.020666 -0.998334 -0.053872
vn 0.839999 0.069394 -0.538133
vn 0.839999 0.069394 -0.538133
vn 0.839999 0.069394 -0.538133
vn 0.839999 0.069394 -0.538133
vn -0.119775 0.992795 -0.003448
vn -0.119775 0.992795 -0.003448
vn -0.119775 0.992795 -0.003448
vn 0.086086 -0.891114 -0.445539
vn 0.086086 -0.891114 -0.445539
vn 0.086086 -0.891114 -0.445539
vn 0.159376 0.950562 -0.266516
vn 0.159376 0.950562 -0.266516
vn 0.159376 0.950562 -0.266516
vn 0.529469 -0.093966 -0.843109
vn 0.529469 -0.093966 -0.843109
vn 0.529469 -0.093966 -0.843109
vn -0.046464 -0.784582 -0.618282
vn -0.046464 -0.784582 -0.618282
vn -0.046464 -0.784582 -0.618282
vn 0.038118 -0.634206 -0.772224
vn 0.038118 -0.634206 -0.772224
vn 0.038118 -0.634206 -0.772224
vn 0.038118 -0.634206 -0.772224
vn 0.419692 -0.779705 -0.464671
vn 0.419692 -0.779705 -0.464671
vn 0.419692 -0.779705 -0.464671
vn 0.291937 -0.937951 0.187141
vn 0.291937 -0.937951 0.187141
vn 0.291937 -0.937951 0.187141
vn 0.291272 -0.950819 -0.105370
vn 0.291272 -0.950819 -0.105370
vn 0.291272 -0.950820 -0.105370
vn 0.291272 -0.950820 -0.105370
vn 0.013228 0.912852 -0.408076
vn 0.013228 0.912852 -0.408076
vn 0.013228 0.912852 -0.408076
vn 0.013228 0.912852 -0.408076
vn -0.017471 0.086754 -0.996077
vn -0.017471 0.086754 -0.996077
vn -0.017471 0.086754 -0.996077
vn -0.017471 0.086754 -0.996077
vn -0.052538 -0.221483 -0.973748
vn -0.052538 -0.221483 -0.973748
vn -0.052538 -0.221483 -0.973748
vn -0.013740 -0.934505 -0.355686
vn -0.013740 -0.934505 -0.355686
vn -0.013740 -0.934505 -0.355686
vn -0.888721 -0.024972 0.457767
vn -0.888721 -0.024972 0.457767
vn -0.888721 -0.024972 0.457767
vn -0.888721 -0.024972 0.457767
vn -0.881360 0.059388 0.468698
vn -0.881360 0.059388 0.468698
vn -0.881360 0.059388 0.468698
vn -0.881360 0.059388 0.468698
vn -0.486860 -0.836279 0.252201
vn -0.486860 -0.836279 0.252201
vn -0.486860 -0.836279 0.252201
vn -0.486860 -0.836279 0.252201
vn 0.330631 -0.941764 -0.061356
vn 0.330631 -0.941764 -0.061356
vn 0.330631 -0.941764 -0.061356
vn -0.890291 -0.013442 0.455193
vn -0.890291 -0.013442 0.455194
vn -0.890291 -0.013442 0.455193
vn -0.686471 0.643763 0.338122
vn -0.686471 0.643763 0.338123
vn -0.686471 0.643763 0.338123
vn -0.686471 0.643763 0.338123
vn -0.611780 0.093413 -0.785493
vn -0.611780 0.093413 -0.785493
vn -0.611780 0.093413 -0.785493
vn -0.680517 0.159441 -0.715175
vn -0.680517 0.159441 -0.715175
vn -0.680517 0.159441 -0.715175
vn -0.680517 0.159441 -0.715175
vn -0.310147 0.890373 -0.333235
vn -0.310147 0.890373 -0.333235
vn -0.310147 0.890373 -0.333235
s off
f 2/3/1 1/1/2 16/2/3 17/4/4
f 3/5/5 2/3/6 17/4/7 18/6/8
f 3/5/9 18/6/10 6/7/11
f 4/8/12 2/3/13 3/5/14
f 1/1/15 2/3/16 4/8/17
f 9/9/18 19/10/19 16/2/20
f 5/11/21 3/5/22 6/7/23
f 4/8/24 3/5/25 5/11/26
f 9/9/27 16/2/28 1/1/29
f 10/14/30 19/10/31 9/9/32
f 8/13/33 5/11/34 6/7/35
f 4/8/36 5/11/37 8/13/38
f 1/1/39 4/8/40 9/9/41
f 9/9/42 4/8/43 8/13/44
f 15/15/45 8/13/46 6/7/47
f 9/9/48 8/13/49 11/16/50 12/18/51
f 10/14/52 20/17/53 19/10/54
f 11/16/55 8/13/56 15/15/57
f 10/14/58 9/9/59 12/18/60
f 12/18/61 11/16/62 13/19/63
f 13/19/64 11/16/65 15/15/66
f 13/19/67 14/20/68 24/21/69 23/22/70
f 13/19/71 15/15/72 14/20/73
f 18/6/74 7/12/75 6/7/76
f 6/7/77 7/12/78 25/23/79 15/15/80
f 27/27/81 20/17/82 10/14/83 12/18/84
f 26/26/85 27/27/86 12/18/87 13/19/88
f 23/22/89 26/26/90 13/19/91
f 25/23/92 24/21/93 14/20/94
f 17/4/95 22/25/96 23/22/97 18/6/98
f 22/25/99 17/4/100 16/2/101 21/24/102
f 25/23/103 7/12/104 18/6/105 24/21/106
f 14/20/107 15/15/108 25/23/109
f 24/21/110 18/6/111 23/22/112
f 19/10/113 20/17/114 21/24/115 16/2/116
f 23/22/117 22/25/118 26/26/119
f 22/25/120 21/24/121 27/27/122 26/26/123
f 21/24/124 20/17/125 27/27/126
